<svg width="400" height="172" viewBox="0 0 400 172" fill="none" xmlns="http://www.w3.org/2000/svg">
<path d="M35.253 57.794V56H42.3551V57.794H35.253Z" fill="#B3D800"/>
<path d="M44.1249 57.794V56H51.227V57.794H44.1249Z" fill="#B3D800"/>
<path d="M52.9968 57.794V56H60.099V57.794H52.9968Z" fill="#B3D800"/>
<path d="M79.6125 57.794V56H86.7147V57.794H79.6125Z" fill="#B3D800"/>
<path d="M88.4844 57.794V56H95.5866V57.794H88.4844Z" fill="#B3D800"/>
<path d="M97.3563 57.794V56H104.458V57.794H97.3563Z" fill="#B3D800"/>
<path d="M123.972 57.794V56H131.074V57.794H123.972Z" fill="#B3D800"/>
<path d="M186.075 57.794V56H193.178V57.794H186.075Z" fill="#B3D800"/>
<path d="M29 76.3954V63.081H30.8643V76.3954H29Z" fill="#B3D800"/>
<path d="M44.1249 77.196V75.402H51.227V77.196H44.1249Z" fill="#B3D800"/>
<path d="M67.2841 69.7382C67.2841 70.4598 67.2003 71.1566 67.0326 71.8288C66.8747 72.491 66.6528 73.1088 66.3667 73.6821C66.0905 74.2554 65.765 74.7743 65.3902 75.2389C65.0154 75.7035 64.6208 76.089 64.2065 76.3954H62.0167C62.4704 76.0791 62.9044 75.7084 63.3187 75.2834C63.7429 74.8682 64.1079 74.4086 64.4137 73.9045C64.7293 73.4004 64.9808 72.8617 65.1683 72.2884C65.3557 71.7151 65.4494 71.1171 65.4494 70.4944V68.982C65.4494 68.3593 65.3557 67.7613 65.1683 67.188C64.9808 66.6147 64.7293 66.076 64.4137 65.5719C64.1079 65.0678 63.7429 64.6082 63.3187 64.193C62.9044 63.768 62.4704 63.3973 62.0167 63.081H64.2065C64.6208 63.3973 65.0154 63.7877 65.3902 64.2523C65.765 64.707 66.0905 65.221 66.3667 65.7943C66.6528 66.3676 66.8747 66.9903 67.0326 67.6625C67.2003 68.3247 67.2841 69.0166 67.2841 69.7382Z" fill="#B3D800"/>
<path d="M73.3595 76.3954V63.081H75.2239V76.3954H73.3595Z" fill="#B3D800"/>
<path d="M88.4844 77.196V75.402H95.5866V77.196H88.4844Z" fill="#B3D800"/>
<path d="M111.644 69.7382C111.644 70.4598 111.56 71.1566 111.392 71.8288C111.234 72.491 111.012 73.1088 110.726 73.6821C110.45 74.2554 110.125 74.7743 109.75 75.2389C109.375 75.7035 108.98 76.089 108.566 76.3954H106.376C106.83 76.0791 107.264 75.7084 107.678 75.2834C108.102 74.8682 108.467 74.4086 108.773 73.9045C109.089 73.4004 109.34 72.8617 109.528 72.2884C109.715 71.7151 109.809 71.1171 109.809 70.4944V68.982C109.809 68.3593 109.715 67.7613 109.528 67.188C109.34 66.6147 109.089 66.076 108.773 65.5719C108.467 65.0678 108.102 64.6082 107.678 64.193C107.264 63.768 106.83 63.3973 106.376 63.081H108.566C108.98 63.3973 109.375 63.7877 109.75 64.2523C110.125 64.707 110.45 65.221 110.726 65.7943C111.012 66.3676 111.234 66.9903 111.392 67.6625C111.56 68.3247 111.644 69.0166 111.644 69.7382Z" fill="#B3D800"/>
<path d="M120.042 76.3954L115.293 63.081H117.26L122.01 76.3954H120.042Z" fill="#B3D800"/>
<path d="M137.786 76.3954L133.036 63.081H135.004L139.754 76.3954H137.786Z" fill="#B3D800"/>
<path d="M150.78 76.3954L155.53 63.081H157.498L152.748 76.3954H150.78Z" fill="#B3D800"/>
<path d="M164.402 76.3954L159.652 63.081H161.62L166.37 76.3954H164.402Z" fill="#B3D800"/>
<path d="M177.396 76.3954L182.145 63.081H184.113L179.364 76.3954H177.396Z" fill="#B3D800"/>
<path d="M195.14 76.3954L199.889 63.081H201.857L197.108 76.3954H195.14Z" fill="#B3D800"/>
<path d="M29 95.7974V82.483H30.8643V95.7974H29Z" fill="#B3D800"/>
<path d="M44.1249 96.598V94.804H51.227V96.598H44.1249Z" fill="#B3D800"/>
<path d="M66.8106 95.7974L62.0611 82.483H64.0289L68.7785 95.7974H66.8106Z" fill="#B3D800"/>
<path d="M73.3595 95.7974V82.483H75.2239V95.7974H73.3595Z" fill="#B3D800"/>
<path d="M88.4844 96.598V94.804H95.5866V96.598H88.4844Z" fill="#B3D800"/>
<path d="M111.17 95.7974L106.421 82.483H108.388L113.138 95.7974H111.17Z" fill="#B3D800"/>
<path d="M128.914 95.7974L124.164 82.483H126.132L130.882 95.7974H128.914Z" fill="#B3D800"/>
<path d="M143.699 93.7513L140.961 83.4022H143.432L144.646 88.6657L145.252 91.6459H145.371L145.992 88.6657L147.22 83.4022H149.573L146.835 93.7513H143.699Z" fill="#B3D800"/>
<path d="M170.314 93.7513L167.577 83.4022H170.048L171.261 88.6657L171.868 91.6459H171.986L172.608 88.6657L173.836 83.4022H176.188L173.451 93.7513H170.314Z" fill="#B3D800"/>
<path d="M186.268 95.7974L191.017 82.483H192.985L188.236 95.7974H186.268Z" fill="#B3D800"/>
<path d="M29 115.199V101.885H30.8643V115.199H29Z" fill="#B3D800"/>
<path d="M35.253 116V114.206H42.3551V116H35.253Z" fill="#B3D800"/>
<path d="M44.1249 116V114.206H51.227V116H44.1249Z" fill="#B3D800"/>
<path d="M52.9968 116V114.206H60.099V116H52.9968Z" fill="#B3D800"/>
<path d="M62.0611 115.199L66.8106 101.885H68.7785L64.0289 115.199H62.0611Z" fill="#B3D800"/>
<path d="M73.3595 115.199V101.885H75.2239V115.199H73.3595Z" fill="#B3D800"/>
<path d="M79.6125 116V114.206H86.7147V116H79.6125Z" fill="#B3D800"/>
<path d="M88.4844 116V114.206H95.5866V116H88.4844Z" fill="#B3D800"/>
<path d="M97.3563 116V114.206H104.458V116H97.3563Z" fill="#B3D800"/>
<path d="M106.421 115.199L111.17 101.885H113.138L108.388 115.199H106.421Z" fill="#B3D800"/>
<path d="M137.786 115.199L133.036 101.885H135.004L139.754 115.199H137.786Z" fill="#B3D800"/>
<path d="M141.716 116V114.206H148.818V116H141.716Z" fill="#B3D800"/>
<path d="M150.78 115.199L155.53 101.885H157.498L152.748 115.199H150.78Z" fill="#B3D800"/>
<path d="M164.402 115.199L159.652 101.885H161.62L166.37 115.199H164.402Z" fill="#B3D800"/>
<path d="M168.332 116V114.206H175.434V116H168.332Z" fill="#B3D800"/>
<path d="M177.396 115.199L182.145 101.885H184.113L179.364 115.199H177.396Z" fill="#B3D800"/>
<path d="M225.217 99.1287C224.216 99.1287 223.476 98.7891 222.997 98.11C222.525 97.4308 222.29 96.48 222.29 95.2575C222.29 94.0351 222.525 93.0843 222.997 92.4051C223.476 91.726 224.216 91.3864 225.217 91.3864C226.218 91.3864 226.954 91.726 227.426 92.4051C227.905 93.0843 228.145 94.0351 228.145 95.2575C228.145 96.48 227.905 97.4308 227.426 98.11C226.954 98.7891 226.218 99.1287 225.217 99.1287ZM225.217 97.8311C225.675 97.8311 225.989 97.6631 226.161 97.3271C226.339 96.984 226.429 96.5086 226.429 95.9009V94.6034C226.429 94.0029 226.339 93.5346 226.161 93.1986C225.989 92.8555 225.675 92.6839 225.217 92.6839C224.759 92.6839 224.441 92.8555 224.263 93.1986C224.091 93.5346 224.005 94.0029 224.005 94.6034V95.9117C224.005 96.5122 224.091 96.984 224.263 97.3271C224.441 97.6631 224.759 97.8311 225.217 97.8311ZM229.127 99V93.4667H230.714V94.4747H230.778C230.843 94.3174 230.921 94.1709 231.014 94.0351C231.107 93.8992 231.218 93.7813 231.347 93.6812C231.482 93.574 231.636 93.4917 231.808 93.4346C231.986 93.3702 232.187 93.338 232.408 93.338C232.673 93.338 232.916 93.3845 233.137 93.4774C233.359 93.5632 233.548 93.6955 233.706 93.8742C233.863 94.0529 233.985 94.271 234.07 94.5283C234.163 94.7857 234.21 95.0824 234.21 95.4184V99H232.623V95.6329C232.623 94.918 232.312 94.5605 231.69 94.5605C231.568 94.5605 231.447 94.5784 231.325 94.6141C231.211 94.6427 231.107 94.6928 231.014 94.7643C230.921 94.8286 230.846 94.9108 230.789 95.0109C230.739 95.111 230.714 95.2289 230.714 95.3648V99H229.127ZM238.227 99.1287C237.297 99.1287 236.593 98.8713 236.114 98.3566C235.635 97.8419 235.396 97.1413 235.396 96.2548C235.396 95.8044 235.457 95.4005 235.578 95.0431C235.707 94.6785 235.886 94.3711 236.114 94.1209C236.35 93.8635 236.633 93.6705 236.961 93.5418C237.297 93.406 237.673 93.338 238.087 93.338C238.502 93.338 238.874 93.406 239.203 93.5418C239.532 93.6705 239.81 93.8563 240.039 94.0994C240.268 94.3425 240.443 94.6391 240.565 94.9894C240.693 95.3326 240.758 95.7186 240.758 96.1476V96.6194H236.972V96.7159C236.972 97.0734 237.083 97.3629 237.305 97.5845C237.526 97.799 237.852 97.9062 238.28 97.9062C238.609 97.9062 238.892 97.8454 239.128 97.7239C239.364 97.5952 239.567 97.4272 239.739 97.2199L240.597 98.1529C240.382 98.4174 240.082 98.6461 239.696 98.8391C239.31 99.0322 238.82 99.1287 238.227 99.1287ZM238.098 94.4747C237.755 94.4747 237.48 94.582 237.272 94.7964C237.072 95.0037 236.972 95.2861 236.972 95.6436V95.7294H239.203V95.6436C239.203 95.279 239.103 94.993 238.902 94.7857C238.709 94.5784 238.441 94.4747 238.098 94.4747ZM248.352 93.4667H249.939V94.4747H250.014C250.15 94.1459 250.347 93.8742 250.604 93.6597C250.861 93.4453 251.212 93.338 251.655 93.338C251.962 93.338 252.241 93.3952 252.491 93.5096C252.749 93.624 252.967 93.7991 253.145 94.0351C253.331 94.271 253.474 94.5712 253.574 94.9358C253.682 95.3004 253.735 95.7329 253.735 96.2334C253.735 96.7338 253.682 97.1663 253.574 97.5309C253.474 97.8955 253.331 98.1957 253.145 98.4317C252.967 98.6676 252.749 98.8427 252.491 98.9571C252.241 99.0715 251.962 99.1287 251.655 99.1287C251.212 99.1287 250.861 99.025 250.604 98.8177C250.347 98.6032 250.15 98.328 250.014 97.992H249.939V101.145H248.352V93.4667ZM250.969 97.8955C251.326 97.8955 251.601 97.7883 251.794 97.5738C251.987 97.3522 252.084 97.0483 252.084 96.6623V95.8044C252.084 95.4184 251.987 95.1181 251.794 94.9037C251.601 94.682 251.326 94.5712 250.969 94.5712C250.69 94.5712 250.447 94.6391 250.239 94.775C250.039 94.9108 249.939 95.1253 249.939 95.4184V97.0483C249.939 97.3414 250.039 97.5559 250.239 97.6917C250.447 97.8276 250.69 97.8955 250.969 97.8955ZM254.878 97.7668H256.573V92.2979H254.878V91.0647H258.16V97.7668H259.854V99H254.878V97.7668ZM265.801 99C265.473 99 265.208 98.9178 265.008 98.7534C264.808 98.5818 264.69 98.3387 264.654 98.0242H264.6C264.5 98.3888 264.3 98.664 264 98.8499C263.707 99.0357 263.346 99.1287 262.917 99.1287C262.381 99.1287 261.948 98.9857 261.619 98.6997C261.298 98.4066 261.137 97.9991 261.137 97.4773C261.137 96.8982 261.348 96.4693 261.769 96.1905C262.191 95.9117 262.81 95.7723 263.625 95.7723H264.515V95.4934C264.515 95.1646 264.436 94.918 264.279 94.7535C264.129 94.582 263.871 94.4962 263.507 94.4962C263.171 94.4962 262.899 94.5605 262.692 94.6892C262.484 94.8179 262.306 94.9859 262.155 95.1932L261.287 94.4211C261.473 94.1066 261.762 93.8492 262.155 93.649C262.556 93.4417 263.067 93.338 263.689 93.338C264.447 93.338 265.036 93.5132 265.458 93.8635C265.887 94.2066 266.102 94.7285 266.102 95.4291V97.8526H266.713V99H265.801ZM263.517 98.0885C263.796 98.0885 264.032 98.0206 264.225 97.8848C264.418 97.7489 264.515 97.5523 264.515 97.295V96.6301H263.667C263.017 96.6301 262.692 96.8482 262.692 97.2843V97.4987C262.692 97.6917 262.767 97.8383 262.917 97.9384C263.067 98.0385 263.267 98.0885 263.517 98.0885ZM270.451 99.1287C270.015 99.1287 269.622 99.0643 269.272 98.9357C268.928 98.7998 268.635 98.6068 268.392 98.3566C268.156 98.1064 267.974 97.8026 267.845 97.4451C267.717 97.0877 267.652 96.6837 267.652 96.2334C267.652 95.783 267.717 95.3791 267.845 95.0216C267.974 94.6642 268.156 94.3603 268.392 94.1101C268.635 93.8599 268.928 93.6705 269.272 93.5418C269.622 93.406 270.012 93.338 270.44 93.338C271.048 93.338 271.534 93.4631 271.899 93.7134C272.271 93.9564 272.553 94.2817 272.746 94.6892L271.524 95.354C271.423 95.1396 271.291 94.9609 271.127 94.8179C270.969 94.6749 270.741 94.6034 270.44 94.6034C270.076 94.6034 269.793 94.7106 269.593 94.9251C269.4 95.1324 269.304 95.4184 269.304 95.783V96.6837C269.304 97.0483 269.4 97.3379 269.593 97.5523C269.793 97.7597 270.083 97.8633 270.462 97.8633C270.769 97.8633 271.009 97.7918 271.18 97.6489C271.359 97.5059 271.509 97.32 271.631 97.0912L272.832 97.7775C272.632 98.185 272.339 98.5139 271.952 98.7641C271.574 99.0071 271.073 99.1287 270.451 99.1287ZM276.806 99.1287C275.877 99.1287 275.172 98.8713 274.693 98.3566C274.214 97.8419 273.975 97.1413 273.975 96.2548C273.975 95.8044 274.036 95.4005 274.157 95.0431C274.286 94.6785 274.465 94.3711 274.693 94.1209C274.929 93.8635 275.212 93.6705 275.541 93.5418C275.877 93.406 276.252 93.338 276.667 93.338C277.081 93.338 277.453 93.406 277.782 93.5418C278.111 93.6705 278.389 93.8563 278.618 94.0994C278.847 94.3425 279.022 94.6391 279.144 94.9894C279.272 95.3326 279.337 95.7186 279.337 96.1476V96.6194H275.551V96.7159C275.551 97.0734 275.662 97.3629 275.884 97.5845C276.105 97.799 276.431 97.9062 276.86 97.9062C277.188 97.9062 277.471 97.8454 277.707 97.7239C277.943 97.5952 278.146 97.4272 278.318 97.2199L279.176 98.1529C278.961 98.4174 278.661 98.6461 278.275 98.8391C277.889 99.0322 277.399 99.1287 276.806 99.1287ZM276.677 94.4747C276.334 94.4747 276.059 94.582 275.852 94.7964C275.651 95.0037 275.551 95.2861 275.551 95.6436V95.7294H277.782V95.6436C277.782 95.279 277.682 94.993 277.482 94.7857C277.289 94.5784 277.02 94.4747 276.677 94.4747ZM287.06 97.7668H288.69V94.6999H286.953V93.4667H288.69V92.6625C288.69 92.1906 288.826 91.8082 289.097 91.5151C289.376 91.2148 289.805 91.0647 290.384 91.0647H292.261V92.2979H290.277V93.4667H292.261V94.6999H290.277V97.7668H292.014V99H287.06V97.7668ZM295.945 99.1287C295.516 99.1287 295.13 99.0643 294.787 98.9357C294.444 98.7998 294.151 98.6068 293.908 98.3566C293.672 98.1064 293.49 97.8026 293.361 97.4451C293.232 97.0877 293.168 96.6837 293.168 96.2334C293.168 95.783 293.232 95.3791 293.361 95.0216C293.49 94.6642 293.672 94.3603 293.908 94.1101C294.151 93.8599 294.444 93.6705 294.787 93.5418C295.13 93.406 295.516 93.338 295.945 93.338C296.374 93.338 296.76 93.406 297.104 93.5418C297.447 93.6705 297.736 93.8599 297.972 94.1101C298.215 94.3603 298.401 94.6642 298.53 95.0216C298.658 95.3791 298.723 95.783 298.723 96.2334C298.723 96.6837 298.658 97.0877 298.53 97.4451C298.401 97.8026 298.215 98.1064 297.972 98.3566C297.736 98.6068 297.447 98.7998 297.104 98.9357C296.76 99.0643 296.374 99.1287 295.945 99.1287ZM295.945 97.9491C296.303 97.9491 296.582 97.8383 296.782 97.6167C296.982 97.3951 297.082 97.0805 297.082 96.673V95.7937C297.082 95.3862 296.982 95.0717 296.782 94.85C296.582 94.6284 296.303 94.5176 295.945 94.5176C295.588 94.5176 295.309 94.6284 295.109 94.85C294.909 95.0717 294.809 95.3862 294.809 95.7937V96.673C294.809 97.0805 294.909 97.3951 295.109 97.6167C295.309 97.8383 295.588 97.9491 295.945 97.9491ZM299.952 97.7668H301.228V94.6999H299.952V93.4667H302.815V95.0323H302.89C302.94 94.8322 303.008 94.6391 303.094 94.4533C303.187 94.2603 303.301 94.0923 303.437 93.9493C303.58 93.7991 303.751 93.6812 303.952 93.5954C304.152 93.5096 304.388 93.4667 304.659 93.4667H305.185V94.9251H304.005C303.612 94.9251 303.315 95.0431 303.115 95.279C302.915 95.5077 302.815 95.7901 302.815 96.1261V97.7668H304.638V99H299.952V97.7668ZM317.24 99C316.911 99 316.647 98.9178 316.447 98.7534C316.247 98.5818 316.129 98.3387 316.093 98.0242H316.039C315.939 98.3888 315.739 98.664 315.439 98.8499C315.146 99.0357 314.785 99.1287 314.356 99.1287C313.819 99.1287 313.387 98.9857 313.058 98.6997C312.736 98.4066 312.576 97.9991 312.576 97.4773C312.576 96.8982 312.786 96.4693 313.208 96.1905C313.63 95.9117 314.248 95.7723 315.063 95.7723H315.953V95.4934C315.953 95.1646 315.875 94.918 315.718 94.7535C315.567 94.582 315.31 94.4962 314.945 94.4962C314.609 94.4962 314.338 94.5605 314.13 94.6892C313.923 94.8179 313.744 94.9859 313.594 95.1932L312.726 94.4211C312.912 94.1066 313.201 93.8492 313.594 93.649C313.995 93.4417 314.506 93.338 315.128 93.338C315.886 93.338 316.475 93.5132 316.897 93.8635C317.326 94.2066 317.54 94.7285 317.54 95.4291V97.8526H318.152V99H317.24ZM314.956 98.0885C315.235 98.0885 315.471 98.0206 315.664 97.8848C315.857 97.7489 315.953 97.5523 315.953 97.295V96.6301H315.106C314.456 96.6301 314.13 96.8482 314.13 97.2843V97.4987C314.13 97.6917 314.206 97.8383 314.356 97.9384C314.506 98.0385 314.706 98.0885 314.956 98.0885ZM319.177 97.7668H320.871V92.2979H319.177V91.0647H322.458V97.7668H324.153V99H319.177V97.7668ZM325.607 97.7668H327.301V92.2979H325.607V91.0647H328.888V97.7668H330.583V99H325.607V97.7668ZM337.812 93.4667H339.131L339.528 97.9491H339.635L340.29 93.4667H341.684L342.327 97.9491H342.434L342.842 93.4667H344.096L343.442 99H341.555L341.008 95.1825H340.901L340.354 99H338.467L337.812 93.4667ZM347.384 99.1287C346.955 99.1287 346.569 99.0643 346.226 98.9357C345.883 98.7998 345.59 98.6068 345.347 98.3566C345.111 98.1064 344.929 97.8026 344.8 97.4451C344.671 97.0877 344.607 96.6837 344.607 96.2334C344.607 95.783 344.671 95.3791 344.8 95.0216C344.929 94.6642 345.111 94.3603 345.347 94.1101C345.59 93.8599 345.883 93.6705 346.226 93.5418C346.569 93.406 346.955 93.338 347.384 93.338C347.813 93.338 348.199 93.406 348.542 93.5418C348.886 93.6705 349.175 93.8599 349.411 94.1101C349.654 94.3603 349.84 94.6642 349.969 95.0216C350.097 95.3791 350.162 95.783 350.162 96.2334C350.162 96.6837 350.097 97.0877 349.969 97.4451C349.84 97.8026 349.654 98.1064 349.411 98.3566C349.175 98.6068 348.886 98.7998 348.542 98.9357C348.199 99.0643 347.813 99.1287 347.384 99.1287ZM347.384 97.9491C347.742 97.9491 348.02 97.8383 348.221 97.6167C348.421 97.3951 348.521 97.0805 348.521 96.673V95.7937C348.521 95.3862 348.421 95.0717 348.221 94.85C348.02 94.6284 347.742 94.5176 347.384 94.5176C347.027 94.5176 346.748 94.6284 346.548 94.85C346.348 95.0717 346.248 95.3862 346.248 95.7937V96.673C346.248 97.0805 346.348 97.3951 346.548 97.6167C346.748 97.8383 347.027 97.9491 347.384 97.9491ZM351.391 97.7668H352.667V94.6999H351.391V93.4667H354.254V95.0323H354.329C354.379 94.8322 354.447 94.6391 354.533 94.4533C354.626 94.2603 354.74 94.0923 354.876 93.9493C355.019 93.7991 355.19 93.6812 355.39 93.5954C355.591 93.5096 355.827 93.4667 356.098 93.4667H356.624V94.9251H355.444C355.051 94.9251 354.754 95.0431 354.554 95.279C354.354 95.5077 354.254 95.7901 354.254 96.1261V97.7668H356.077V99H351.391V97.7668ZM357.724 91.0647H359.311V95.5685H359.386L360.126 94.6999L361.284 93.4667H363.107L360.962 95.6543L363.332 99H361.445L359.836 96.5551L359.311 97.0805V99H357.724V91.0647ZM366.609 99.1287C365.995 99.1287 365.458 99.0357 365.001 98.8499C364.551 98.664 364.211 98.4102 363.982 98.0885L364.872 97.2628C365.087 97.4987 365.337 97.6846 365.623 97.8204C365.916 97.9491 366.248 98.0134 366.62 98.0134C366.935 98.0134 367.181 97.967 367.36 97.874C367.539 97.774 367.628 97.6238 367.628 97.4237C367.628 97.2664 367.567 97.1591 367.446 97.102C367.324 97.0376 367.156 96.9876 366.942 96.9518L366.052 96.8124C365.802 96.7767 365.569 96.7231 365.355 96.6516C365.14 96.5729 364.954 96.4693 364.797 96.3406C364.64 96.2119 364.515 96.0546 364.422 95.8688C364.329 95.6829 364.282 95.4577 364.282 95.1932C364.282 94.6141 364.504 94.1602 364.947 93.8313C365.391 93.5025 366.013 93.338 366.813 93.338C367.357 93.338 367.818 93.4131 368.197 93.5632C368.583 93.7062 368.89 93.9135 369.119 94.1852L368.325 95.086C368.161 94.9072 367.95 94.7571 367.693 94.6356C367.435 94.514 367.124 94.4533 366.76 94.4533C366.145 94.4533 365.837 94.6391 365.837 95.0109C365.837 95.1753 365.898 95.2897 366.02 95.354C366.141 95.4112 366.309 95.4577 366.524 95.4934L367.403 95.6329C367.653 95.6686 367.886 95.7258 368.1 95.8044C368.314 95.8759 368.5 95.976 368.658 96.1047C368.822 96.2334 368.951 96.3906 369.044 96.5765C369.137 96.7624 369.183 96.9876 369.183 97.2521C369.183 97.8311 368.958 98.2887 368.507 98.6247C368.064 98.9607 367.432 99.1287 366.609 99.1287ZM225.217 113.129C224.788 113.129 224.402 113.064 224.059 112.936C223.716 112.8 223.423 112.607 223.18 112.357C222.944 112.106 222.761 111.803 222.633 111.445C222.504 111.088 222.44 110.684 222.44 110.233C222.44 109.783 222.504 109.379 222.633 109.022C222.761 108.664 222.944 108.36 223.18 108.11C223.423 107.86 223.716 107.67 224.059 107.542C224.402 107.406 224.788 107.338 225.217 107.338C225.646 107.338 226.032 107.406 226.375 107.542C226.718 107.67 227.008 107.86 227.244 108.11C227.487 108.36 227.673 108.664 227.801 109.022C227.93 109.379 227.994 109.783 227.994 110.233C227.994 110.684 227.93 111.088 227.801 111.445C227.673 111.803 227.487 112.106 227.244 112.357C227.008 112.607 226.718 112.8 226.375 112.936C226.032 113.064 225.646 113.129 225.217 113.129ZM225.217 111.949C225.574 111.949 225.853 111.838 226.053 111.617C226.254 111.395 226.354 111.081 226.354 110.673V109.794C226.354 109.386 226.254 109.072 226.053 108.85C225.853 108.628 225.574 108.518 225.217 108.518C224.86 108.518 224.581 108.628 224.381 108.85C224.18 109.072 224.08 109.386 224.08 109.794V110.673C224.08 111.081 224.18 111.395 224.381 111.617C224.581 111.838 224.86 111.949 225.217 111.949ZM229.191 111.767H230.821V108.7H229.084V107.467H230.821V106.662C230.821 106.191 230.957 105.808 231.229 105.515C231.507 105.215 231.936 105.065 232.515 105.065H234.392V106.298H232.408V107.467H234.392V108.7H232.408V111.767H234.145V113H229.191V111.767ZM242.115 105.515H244.742C245.479 105.515 246.04 105.694 246.426 106.051C246.819 106.409 247.016 106.895 247.016 107.51C247.016 107.939 246.909 108.282 246.694 108.539C246.487 108.789 246.187 108.972 245.793 109.086V109.15C246.258 109.265 246.616 109.465 246.866 109.751C247.123 110.037 247.252 110.434 247.252 110.941C247.252 111.57 247.052 112.071 246.651 112.442C246.258 112.814 245.704 113 244.989 113H242.115V105.515ZM244.496 111.874C244.882 111.874 245.164 111.81 245.343 111.681C245.522 111.552 245.611 111.316 245.611 110.973V110.662C245.611 110.319 245.522 110.083 245.343 109.955C245.164 109.826 244.882 109.762 244.496 109.762H243.681V111.874H244.496ZM244.292 108.689C244.671 108.689 244.946 108.628 245.118 108.507C245.289 108.378 245.375 108.149 245.375 107.821V107.499C245.375 107.17 245.289 106.945 245.118 106.823C244.946 106.702 244.671 106.641 244.292 106.641H243.681V108.689H244.292ZM248.545 105.515H251.172C251.909 105.515 252.47 105.694 252.856 106.051C253.249 106.409 253.446 106.895 253.446 107.51C253.446 107.939 253.338 108.282 253.124 108.539C252.917 108.789 252.616 108.972 252.223 109.086V109.15C252.688 109.265 253.045 109.465 253.296 109.751C253.553 110.037 253.682 110.434 253.682 110.941C253.682 111.57 253.481 112.071 253.081 112.442C252.688 112.814 252.134 113 251.419 113H248.545V105.515ZM250.926 111.874C251.312 111.874 251.594 111.81 251.773 111.681C251.952 111.552 252.041 111.316 252.041 110.973V110.662C252.041 110.319 251.952 110.083 251.773 109.955C251.594 109.826 251.312 109.762 250.926 109.762H250.111V111.874H250.926ZM250.722 108.689C251.101 108.689 251.376 108.628 251.548 108.507C251.719 108.378 251.805 108.149 251.805 107.821V107.499C251.805 107.17 251.719 106.945 251.548 106.823C251.376 106.702 251.101 106.641 250.722 106.641H250.111V108.689H250.722ZM254.728 113L254.267 105.515H255.651L255.865 109.997L255.929 111.413H256.026L256.669 107.145H258.117L258.76 111.413H258.857L258.921 110.04L259.136 105.515H260.465L260.004 113H257.967L257.42 108.871H257.313L256.766 113H254.728ZM267.813 113V111.81H269.422V106.705H267.813V105.515H272.639V106.705H271.03V111.81H272.639V113H267.813ZM277.46 106.834V113H275.852V106.834H273.696V105.515H279.616V106.834H277.46ZM289.451 113.129C288.836 113.129 288.3 113.036 287.843 112.85C287.392 112.664 287.053 112.41 286.824 112.089L287.714 111.263C287.928 111.499 288.179 111.685 288.465 111.82C288.758 111.949 289.09 112.013 289.462 112.013C289.776 112.013 290.023 111.967 290.202 111.874C290.381 111.774 290.47 111.624 290.47 111.424C290.47 111.266 290.409 111.159 290.288 111.102C290.166 111.038 289.998 110.988 289.784 110.952L288.894 110.812C288.643 110.777 288.411 110.723 288.197 110.652C287.982 110.573 287.796 110.469 287.639 110.341C287.482 110.212 287.357 110.055 287.264 109.869C287.171 109.683 287.124 109.458 287.124 109.193C287.124 108.614 287.346 108.16 287.789 107.831C288.232 107.502 288.854 107.338 289.655 107.338C290.198 107.338 290.659 107.413 291.038 107.563C291.424 107.706 291.732 107.914 291.96 108.185L291.167 109.086C291.003 108.907 290.792 108.757 290.534 108.636C290.277 108.514 289.966 108.453 289.601 108.453C288.987 108.453 288.679 108.639 288.679 109.011C288.679 109.175 288.74 109.29 288.861 109.354C288.983 109.411 289.151 109.458 289.365 109.493L290.245 109.633C290.495 109.669 290.727 109.726 290.942 109.804C291.156 109.876 291.342 109.976 291.499 110.105C291.664 110.233 291.792 110.391 291.885 110.577C291.978 110.762 292.025 110.988 292.025 111.252C292.025 111.831 291.8 112.289 291.349 112.625C290.906 112.961 290.273 113.129 289.451 113.129ZM296.374 113C295.802 113 295.377 112.85 295.098 112.55C294.819 112.249 294.68 111.867 294.68 111.402V108.7H293.179V107.467H294.155C294.391 107.467 294.559 107.42 294.659 107.327C294.759 107.234 294.809 107.063 294.809 106.813V105.515H296.267V107.467H298.423V108.7H296.267V111.767H298.423V113H296.374ZM303.308 111.992H303.244C303.122 112.307 302.929 112.575 302.665 112.796C302.407 113.018 302.057 113.129 301.614 113.129C301.349 113.129 301.106 113.086 300.885 113C300.663 112.907 300.474 112.771 300.316 112.593C300.159 112.414 300.034 112.196 299.941 111.938C299.855 111.681 299.812 111.384 299.812 111.048V107.467H301.399V110.834C301.399 111.549 301.71 111.906 302.332 111.906C302.454 111.906 302.572 111.892 302.686 111.863C302.808 111.828 302.911 111.778 302.997 111.713C303.09 111.642 303.165 111.556 303.222 111.456C303.28 111.356 303.308 111.238 303.308 111.102V107.467H304.895V113H303.308V111.992ZM309.802 111.992H309.727C309.584 112.328 309.384 112.603 309.127 112.818C308.877 113.025 308.53 113.129 308.087 113.129C307.779 113.129 307.497 113.071 307.24 112.957C306.989 112.843 306.771 112.668 306.585 112.432C306.407 112.196 306.264 111.895 306.156 111.531C306.056 111.166 306.006 110.734 306.006 110.233C306.006 109.733 306.056 109.3 306.156 108.936C306.264 108.571 306.407 108.271 306.585 108.035C306.771 107.799 306.989 107.624 307.24 107.51C307.497 107.395 307.779 107.338 308.087 107.338C308.308 107.338 308.505 107.367 308.676 107.424C308.848 107.481 308.998 107.56 309.127 107.66C309.263 107.76 309.377 107.881 309.47 108.024C309.57 108.16 309.656 108.31 309.727 108.475H309.802V105.065H311.389V113H309.802V111.992ZM308.773 111.895C309.052 111.895 309.291 111.828 309.491 111.692C309.699 111.556 309.802 111.341 309.802 111.048V109.418C309.802 109.125 309.699 108.911 309.491 108.775C309.291 108.639 309.052 108.571 308.773 108.571C308.416 108.571 308.14 108.682 307.947 108.904C307.754 109.118 307.658 109.418 307.658 109.804V110.662C307.658 111.048 307.754 111.352 307.947 111.574C308.14 111.788 308.416 111.895 308.773 111.895ZM315.385 113.129C314.456 113.129 313.752 112.871 313.273 112.357C312.794 111.842 312.554 111.141 312.554 110.255C312.554 109.804 312.615 109.401 312.736 109.043C312.865 108.678 313.044 108.371 313.273 108.121C313.508 107.863 313.791 107.67 314.12 107.542C314.456 107.406 314.831 107.338 315.246 107.338C315.66 107.338 316.032 107.406 316.361 107.542C316.69 107.67 316.969 107.856 317.197 108.099C317.426 108.342 317.601 108.639 317.723 108.989C317.851 109.333 317.916 109.719 317.916 110.148V110.619H314.13V110.716C314.13 111.073 314.241 111.363 314.463 111.585C314.684 111.799 315.01 111.906 315.439 111.906C315.768 111.906 316.05 111.845 316.286 111.724C316.522 111.595 316.726 111.427 316.897 111.22L317.755 112.153C317.54 112.417 317.24 112.646 316.854 112.839C316.468 113.032 315.978 113.129 315.385 113.129ZM315.256 108.475C314.913 108.475 314.638 108.582 314.431 108.796C314.231 109.004 314.13 109.286 314.13 109.644V109.729H316.361V109.644C316.361 109.279 316.261 108.993 316.061 108.786C315.868 108.578 315.6 108.475 315.256 108.475ZM319.145 113V107.467H320.732V108.475H320.796C320.861 108.317 320.939 108.171 321.032 108.035C321.125 107.899 321.236 107.781 321.365 107.681C321.5 107.574 321.654 107.492 321.826 107.435C322.004 107.37 322.205 107.338 322.426 107.338C322.691 107.338 322.934 107.385 323.155 107.477C323.377 107.563 323.566 107.695 323.724 107.874C323.881 108.053 324.003 108.271 324.088 108.528C324.181 108.786 324.228 109.082 324.228 109.418V113H322.641V109.633C322.641 108.918 322.33 108.561 321.708 108.561C321.586 108.561 321.465 108.578 321.343 108.614C321.229 108.643 321.125 108.693 321.032 108.764C320.939 108.829 320.864 108.911 320.807 109.011C320.757 109.111 320.732 109.229 320.732 109.365V113H319.145ZM328.524 113C327.952 113 327.526 112.85 327.248 112.55C326.969 112.249 326.829 111.867 326.829 111.402V108.7H325.328V107.467H326.304C326.54 107.467 326.708 107.42 326.808 107.327C326.908 107.234 326.958 107.063 326.958 106.813V105.515H328.416V107.467H330.572V108.7H328.416V111.767H330.572V113H328.524ZM334.46 113.129C333.845 113.129 333.309 113.036 332.852 112.85C332.401 112.664 332.062 112.41 331.833 112.089L332.723 111.263C332.937 111.499 333.188 111.685 333.474 111.82C333.767 111.949 334.099 112.013 334.471 112.013C334.785 112.013 335.032 111.967 335.211 111.874C335.39 111.774 335.479 111.624 335.479 111.424C335.479 111.266 335.418 111.159 335.297 111.102C335.175 111.038 335.007 110.988 334.793 110.952L333.903 110.812C333.652 110.777 333.42 110.723 333.206 110.652C332.991 110.573 332.805 110.469 332.648 110.341C332.491 110.212 332.366 110.055 332.273 109.869C332.18 109.683 332.133 109.458 332.133 109.193C332.133 108.614 332.355 108.16 332.798 107.831C333.241 107.502 333.863 107.338 334.664 107.338C335.207 107.338 335.668 107.413 336.047 107.563C336.433 107.706 336.741 107.914 336.969 108.185L336.176 109.086C336.012 108.907 335.801 108.757 335.543 108.636C335.286 108.514 334.975 108.453 334.61 108.453C333.996 108.453 333.688 108.639 333.688 109.011C333.688 109.175 333.749 109.29 333.87 109.354C333.992 109.411 334.16 109.458 334.374 109.493L335.254 109.633C335.504 109.669 335.736 109.726 335.951 109.804C336.165 109.876 336.351 109.976 336.508 110.105C336.673 110.233 336.801 110.391 336.894 110.577C336.987 110.762 337.034 110.988 337.034 111.252C337.034 111.831 336.809 112.289 336.358 112.625C335.915 112.961 335.282 113.129 334.46 113.129ZM340.954 113.129C340.554 113.129 340.265 113.043 340.086 112.871C339.914 112.693 339.828 112.482 339.828 112.239V111.863C339.828 111.62 339.914 111.413 340.086 111.241C340.265 111.063 340.554 110.973 340.954 110.973C341.355 110.973 341.641 111.063 341.812 111.241C341.991 111.413 342.08 111.62 342.08 111.863V112.239C342.08 112.482 341.991 112.693 341.812 112.871C341.641 113.043 341.355 113.129 340.954 113.129Z" fill="#B3D800"/>
<path d="M237.001 72.0113H230.003V83.5268H224V56H230.003V67.1606H237.001V56H243.004V83.5268H237.001V72.0113Z" fill="#B3D800"/>
<path d="M257.898 84C254.452 84 251.841 83.0535 250.065 81.1606C248.29 79.2676 247.402 76.6911 247.402 73.431C247.402 71.7746 247.627 70.2892 248.077 68.9746C248.555 67.6338 249.217 66.5033 250.065 65.5831C250.94 64.6366 251.987 63.9268 253.206 63.4535C254.452 62.954 255.843 62.7042 257.381 62.7042C258.918 62.7042 260.296 62.954 261.516 63.4535C262.735 63.9268 263.768 64.6103 264.617 65.5042C265.465 66.3981 266.114 67.4892 266.565 68.7775C267.042 70.0394 267.28 71.4592 267.28 73.0366V74.7718H253.246V75.1268C253.246 76.4413 253.657 77.5061 254.478 78.3211C255.3 79.1099 256.506 79.5042 258.096 79.5042C259.316 79.5042 260.363 79.2808 261.237 78.8338C262.112 78.3606 262.867 77.7427 263.503 76.9803L266.684 80.4113C265.889 81.384 264.776 82.2254 263.344 82.9352C261.913 83.6451 260.097 84 257.898 84ZM257.42 66.8845C256.148 66.8845 255.128 67.2789 254.359 68.0676C253.617 68.83 253.246 69.8685 253.246 71.1831V71.4986H261.516V71.1831C261.516 69.8423 261.144 68.7906 260.402 68.0282C259.687 67.2657 258.693 66.8845 257.42 66.8845Z" fill="#B3D800"/>
<path d="M272.195 78.9916H276.926V67.7127H272.195V63.1775H282.81V68.9352H283.088C283.274 68.1991 283.526 67.4892 283.844 66.8056C284.188 66.0958 284.612 65.4779 285.116 64.9521C285.646 64.4 286.282 63.9662 287.024 63.6507C287.766 63.3352 288.641 63.1775 289.648 63.1775H291.596V68.5408H287.223C285.765 68.5408 284.665 68.9746 283.923 69.8423C283.181 70.6836 282.81 71.7221 282.81 72.9577V78.9916H289.569V83.5268H272.195V78.9916Z" fill="#B3D800"/>
<path d="M305.019 84C303.429 84 301.997 83.7634 300.725 83.2901C299.453 82.7906 298.366 82.0808 297.465 81.1606C296.59 80.2404 295.914 79.123 295.437 77.8085C294.96 76.4939 294.722 75.0085 294.722 73.3521C294.722 71.6958 294.96 70.2103 295.437 68.8958C295.914 67.5812 296.59 66.4638 297.465 65.5437C298.366 64.6235 299.453 63.9268 300.725 63.4535C301.997 62.954 303.429 62.7042 305.019 62.7042C306.609 62.7042 308.04 62.954 309.313 63.4535C310.585 63.9268 311.658 64.6235 312.533 65.5437C313.434 66.4638 314.123 67.5812 314.6 68.8958C315.078 70.2103 315.316 71.6958 315.316 73.3521C315.316 75.0085 315.078 76.4939 314.6 77.8085C314.123 79.123 313.434 80.2404 312.533 81.1606C311.658 82.0808 310.585 82.7906 309.313 83.2901C308.04 83.7634 306.609 84 305.019 84ZM305.019 79.662C306.344 79.662 307.378 79.2545 308.12 78.4394C308.862 77.6244 309.233 76.4676 309.233 74.969V71.7352C309.233 70.2366 308.862 69.0798 308.12 68.2648C307.378 67.4498 306.344 67.0423 305.019 67.0423C303.694 67.0423 302.66 67.4498 301.918 68.2648C301.176 69.0798 300.805 70.2366 300.805 71.7352V74.969C300.805 76.4676 301.176 77.6244 301.918 78.4394C302.66 79.2545 303.694 79.662 305.019 79.662Z" fill="#B3D800"/>
<path d="M329.414 84C325.969 84 323.358 83.0535 321.582 81.1606C319.806 79.2676 318.918 76.6911 318.918 73.431C318.918 71.7746 319.144 70.2892 319.594 68.9746C320.071 67.6338 320.734 66.5033 321.582 65.5831C322.457 64.6366 323.504 63.9268 324.723 63.4535C325.969 62.954 327.36 62.7042 328.898 62.7042C330.435 62.7042 331.813 62.954 333.032 63.4535C334.252 63.9268 335.285 64.6103 336.133 65.5042C336.982 66.3981 337.631 67.4892 338.082 68.7775C338.559 70.0394 338.797 71.4592 338.797 73.0366V74.7718H324.763V75.1268C324.763 76.4413 325.174 77.5061 325.995 78.3211C326.817 79.1099 328.023 79.5042 329.613 79.5042C330.832 79.5042 331.879 79.2808 332.754 78.8338C333.629 78.3606 334.384 77.7427 335.02 76.9803L338.201 80.4113C337.406 81.384 336.292 82.2254 334.861 82.9352C333.43 83.6451 331.614 84 329.414 84ZM328.937 66.8845C327.665 66.8845 326.645 67.2789 325.876 68.0676C325.134 68.83 324.763 69.8685 324.763 71.1831V71.4986H333.032V71.1831C333.032 69.8423 332.661 68.7906 331.919 68.0282C331.203 67.2657 330.21 66.8845 328.937 66.8845Z" fill="#B3D800"/>
<path d="M352.458 84C350.179 84 348.191 83.6582 346.495 82.9746C344.825 82.2911 343.566 81.3577 342.718 80.1746L346.017 77.138C346.813 78.0056 347.74 78.6892 348.801 79.1887C349.887 79.662 351.12 79.8986 352.498 79.8986C353.664 79.8986 354.579 79.7277 355.241 79.3859C355.904 79.0178 356.235 78.4657 356.235 77.7296C356.235 77.1512 356.01 76.7568 355.559 76.5465C355.109 76.3099 354.486 76.1258 353.691 75.9944L350.391 75.4817C349.463 75.3502 348.602 75.1531 347.807 74.8901C347.011 74.6009 346.322 74.2197 345.739 73.7465C345.156 73.2732 344.692 72.6948 344.348 72.0113C344.003 71.3277 343.831 70.4995 343.831 69.5268C343.831 67.3972 344.652 65.7277 346.296 64.5183C347.939 63.3089 350.245 62.7042 353.214 62.7042C355.228 62.7042 356.938 62.9803 358.342 63.5324C359.774 64.0582 360.913 64.8207 361.761 65.8197L358.819 69.1324C358.21 68.4751 357.428 67.923 356.474 67.4761C355.52 67.0291 354.367 66.8056 353.015 66.8056C350.735 66.8056 349.596 67.4892 349.596 68.8563C349.596 69.461 349.821 69.8817 350.272 70.1183C350.722 70.3286 351.345 70.4995 352.14 70.631L355.4 71.1437C356.328 71.2751 357.189 71.4854 357.984 71.7746C358.78 72.0376 359.469 72.4056 360.052 72.8789C360.661 73.3521 361.139 73.9305 361.483 74.6141C361.828 75.2977 362 76.1258 362 77.0986C362 79.2282 361.165 80.9108 359.495 82.1465C357.852 83.3822 355.506 84 352.458 84Z" fill="#B3D800"/>
</svg>
