<svg width="400" height="172" viewBox="0 0 400 172" fill="none" xmlns="http://www.w3.org/2000/svg">
<path d="M48.253 57.794V56H55.3551V57.794H48.253Z" fill="#B3D800"/>
<path d="M57.1249 57.794V56H64.227V57.794H57.1249Z" fill="#B3D800"/>
<path d="M65.9968 57.794V56H73.099V57.794H65.9968Z" fill="#B3D800"/>
<path d="M92.6125 57.794V56H99.7147V57.794H92.6125Z" fill="#B3D800"/>
<path d="M101.484 57.794V56H108.587V57.794H101.484Z" fill="#B3D800"/>
<path d="M110.356 57.794V56H117.458V57.794H110.356Z" fill="#B3D800"/>
<path d="M136.972 57.794V56H144.074V57.794H136.972Z" fill="#B3D800"/>
<path d="M199.075 57.794V56H206.178V57.794H199.075Z" fill="#B3D800"/>
<path d="M42 76.3954V63.081H43.8643V76.3954H42Z" fill="#B3D800"/>
<path d="M57.1249 77.196V75.402H64.227V77.196H57.1249Z" fill="#B3D800"/>
<path d="M80.2841 69.7382C80.2841 70.4598 80.2003 71.1566 80.0326 71.8288C79.8747 72.491 79.6528 73.1088 79.3667 73.6821C79.0905 74.2554 78.765 74.7743 78.3902 75.2389C78.0154 75.7035 77.6208 76.089 77.2065 76.3954H75.0167C75.4704 76.0791 75.9044 75.7084 76.3187 75.2834C76.7429 74.8682 77.1079 74.4086 77.4137 73.9045C77.7293 73.4004 77.9808 72.8617 78.1683 72.2884C78.3557 71.7151 78.4494 71.1171 78.4494 70.4944V68.982C78.4494 68.3593 78.3557 67.7613 78.1683 67.188C77.9808 66.6147 77.7293 66.076 77.4137 65.5719C77.1079 65.0678 76.7429 64.6082 76.3187 64.193C75.9044 63.768 75.4704 63.3973 75.0167 63.081H77.2065C77.6208 63.3973 78.0154 63.7877 78.3902 64.2523C78.765 64.707 79.0905 65.221 79.3667 65.7943C79.6528 66.3676 79.8747 66.9903 80.0326 67.6625C80.2003 68.3247 80.2841 69.0166 80.2841 69.7382Z" fill="#B3D800"/>
<path d="M86.3595 76.3954V63.081H88.2239V76.3954H86.3595Z" fill="#B3D800"/>
<path d="M101.484 77.196V75.402H108.587V77.196H101.484Z" fill="#B3D800"/>
<path d="M124.644 69.7382C124.644 70.4598 124.56 71.1566 124.392 71.8288C124.234 72.491 124.012 73.1088 123.726 73.6821C123.45 74.2554 123.125 74.7743 122.75 75.2389C122.375 75.7035 121.98 76.089 121.566 76.3954H119.376C119.83 76.0791 120.264 75.7084 120.678 75.2834C121.102 74.8682 121.467 74.4086 121.773 73.9045C122.089 73.4004 122.34 72.8617 122.528 72.2884C122.715 71.7151 122.809 71.1171 122.809 70.4944V68.982C122.809 68.3593 122.715 67.7613 122.528 67.188C122.34 66.6147 122.089 66.076 121.773 65.5719C121.467 65.0678 121.102 64.6082 120.678 64.193C120.264 63.768 119.83 63.3973 119.376 63.081H121.566C121.98 63.3973 122.375 63.7877 122.75 64.2523C123.125 64.707 123.45 65.221 123.726 65.7943C124.012 66.3676 124.234 66.9903 124.392 67.6625C124.56 68.3247 124.644 69.0166 124.644 69.7382Z" fill="#B3D800"/>
<path d="M133.042 76.3954L128.293 63.081H130.26L135.01 76.3954H133.042Z" fill="#B3D800"/>
<path d="M150.786 76.3954L146.036 63.081H148.004L152.754 76.3954H150.786Z" fill="#B3D800"/>
<path d="M163.78 76.3954L168.53 63.081H170.498L165.748 76.3954H163.78Z" fill="#B3D800"/>
<path d="M177.402 76.3954L172.652 63.081H174.62L179.37 76.3954H177.402Z" fill="#B3D800"/>
<path d="M190.396 76.3954L195.145 63.081H197.113L192.364 76.3954H190.396Z" fill="#B3D800"/>
<path d="M208.14 76.3954L212.889 63.081H214.857L210.108 76.3954H208.14Z" fill="#B3D800"/>
<path d="M42 95.7974V82.483H43.8643V95.7974H42Z" fill="#B3D800"/>
<path d="M57.1249 96.598V94.804H64.227V96.598H57.1249Z" fill="#B3D800"/>
<path d="M79.8106 95.7974L75.0611 82.483H77.0289L81.7785 95.7974H79.8106Z" fill="#B3D800"/>
<path d="M86.3595 95.7974V82.483H88.2239V95.7974H86.3595Z" fill="#B3D800"/>
<path d="M101.484 96.598V94.804H108.587V96.598H101.484Z" fill="#B3D800"/>
<path d="M124.17 95.7974L119.421 82.483H121.388L126.138 95.7974H124.17Z" fill="#B3D800"/>
<path d="M141.914 95.7974L137.164 82.483H139.132L143.882 95.7974H141.914Z" fill="#B3D800"/>
<path d="M156.699 93.7513L153.961 83.4022H156.432L157.646 88.6657L158.252 91.6459H158.371L158.992 88.6657L160.22 83.4022H162.573L159.835 93.7513H156.699Z" fill="#B3D800"/>
<path d="M183.314 93.7513L180.577 83.4022H183.048L184.261 88.6657L184.868 91.6459H184.986L185.608 88.6657L186.836 83.4022H189.188L186.451 93.7513H183.314Z" fill="#B3D800"/>
<path d="M199.268 95.7974L204.017 82.483H205.985L201.236 95.7974H199.268Z" fill="#B3D800"/>
<path d="M42 115.199V101.885H43.8643V115.199H42Z" fill="#B3D800"/>
<path d="M48.253 116V114.206H55.3551V116H48.253Z" fill="#B3D800"/>
<path d="M57.1249 116V114.206H64.227V116H57.1249Z" fill="#B3D800"/>
<path d="M65.9968 116V114.206H73.099V116H65.9968Z" fill="#B3D800"/>
<path d="M75.0611 115.199L79.8106 101.885H81.7785L77.0289 115.199H75.0611Z" fill="#B3D800"/>
<path d="M86.3595 115.199V101.885H88.2239V115.199H86.3595Z" fill="#B3D800"/>
<path d="M92.6125 116V114.206H99.7147V116H92.6125Z" fill="#B3D800"/>
<path d="M101.484 116V114.206H108.587V116H101.484Z" fill="#B3D800"/>
<path d="M110.356 116V114.206H117.458V116H110.356Z" fill="#B3D800"/>
<path d="M119.421 115.199L124.17 101.885H126.138L121.388 115.199H119.421Z" fill="#B3D800"/>
<path d="M150.786 115.199L146.036 101.885H148.004L152.754 115.199H150.786Z" fill="#B3D800"/>
<path d="M154.716 116V114.206H161.818V116H154.716Z" fill="#B3D800"/>
<path d="M163.78 115.199L168.53 101.885H170.498L165.748 115.199H163.78Z" fill="#B3D800"/>
<path d="M177.402 115.199L172.652 101.885H174.62L179.37 115.199H177.402Z" fill="#B3D800"/>
<path d="M181.332 116V114.206H188.434V116H181.332Z" fill="#B3D800"/>
<path d="M190.396 115.199L195.145 101.885H197.113L192.364 115.199H190.396Z" fill="#B3D800"/>
<path d="M238.11 99.1287C237.23 99.1287 236.58 98.8785 236.158 98.378C235.743 97.8705 235.536 97.1699 235.536 96.2763C235.536 95.5471 235.618 94.8822 235.783 94.2817C235.947 93.6812 236.18 93.1665 236.48 92.7375C236.78 92.3086 237.141 91.9762 237.563 91.7403C237.992 91.5043 238.471 91.3864 239 91.3864C239.414 91.3864 239.772 91.44 240.072 91.5472C240.38 91.6545 240.633 91.8046 240.834 91.9976C241.034 92.1906 241.184 92.423 241.284 92.6946C241.391 92.9663 241.455 93.263 241.477 93.5847L239.943 93.8957C239.929 93.7169 239.904 93.5525 239.868 93.4024C239.84 93.2523 239.786 93.1236 239.708 93.0163C239.636 92.9091 239.536 92.8269 239.407 92.7697C239.286 92.7054 239.129 92.6732 238.935 92.6732C238.492 92.6732 238.153 92.8483 237.917 93.1986C237.681 93.5489 237.513 94.0243 237.413 94.6249L237.22 95.7937C237.198 95.9224 237.177 96.0511 237.155 96.1797C237.141 96.3084 237.134 96.4586 237.134 96.6301C237.134 97.009 237.216 97.3057 237.381 97.5202C237.545 97.7346 237.824 97.8419 238.217 97.8419C238.389 97.8419 238.546 97.8097 238.689 97.7454C238.832 97.6739 238.961 97.5809 239.075 97.4666C239.189 97.3522 239.293 97.2199 239.386 97.0698C239.479 96.9125 239.561 96.7445 239.633 96.5658L240.994 96.9733C240.701 97.6739 240.326 98.21 239.868 98.5818C239.418 98.9464 238.832 99.1287 238.11 99.1287ZM244.272 99.1287C243.514 99.1287 242.928 98.9178 242.513 98.496C242.098 98.0671 241.891 97.4844 241.891 96.7481C241.891 96.2191 241.966 95.7437 242.116 95.3219C242.273 94.9001 242.488 94.5426 242.76 94.2495C243.038 93.9564 243.367 93.7312 243.746 93.574C244.132 93.4167 244.558 93.338 245.022 93.338C245.78 93.338 246.366 93.5525 246.781 93.9814C247.195 94.4032 247.403 94.9823 247.403 95.7186C247.403 96.2477 247.324 96.7231 247.167 97.1449C247.017 97.5666 246.802 97.9241 246.523 98.2172C246.252 98.5103 245.923 98.7355 245.537 98.8928C245.158 99.05 244.736 99.1287 244.272 99.1287ZM244.39 97.9598C244.733 97.9598 245.011 97.8562 245.226 97.6489C245.448 97.4415 245.591 97.1449 245.655 96.7588L245.794 95.9224C245.809 95.858 245.819 95.7866 245.826 95.7079C245.841 95.6221 245.848 95.5471 245.848 95.4827C245.848 95.1539 245.762 94.9108 245.591 94.7535C245.426 94.5891 245.197 94.5069 244.904 94.5069C244.561 94.5069 244.279 94.6106 244.057 94.8179C243.843 95.0252 243.703 95.3219 243.639 95.7079L243.499 96.5443C243.485 96.6087 243.471 96.6837 243.457 96.7695C243.449 96.8482 243.446 96.9197 243.446 96.984C243.446 97.3129 243.528 97.5595 243.692 97.7239C243.864 97.8812 244.096 97.9598 244.39 97.9598ZM250.755 99.1287C250.312 99.1287 249.983 99.0143 249.768 98.7855C249.554 98.5496 249.447 98.2351 249.447 97.8419C249.447 97.7203 249.454 97.6024 249.468 97.488C249.483 97.3736 249.511 97.2056 249.554 96.984L250.423 92.2871H248.793L248.996 91.0647H252.203L250.948 97.8633L251.109 97.9169L252.61 96.3835L253.468 97.1449L252.814 97.8955C252.449 98.303 252.106 98.6104 251.784 98.8177C251.47 99.025 251.127 99.1287 250.755 99.1287ZM257.185 99.1287C256.742 99.1287 256.413 99.0143 256.198 98.7855C255.984 98.5496 255.877 98.2351 255.877 97.8419C255.877 97.7203 255.884 97.6024 255.898 97.488C255.912 97.3736 255.941 97.2056 255.984 96.984L256.852 92.2871H255.222L255.426 91.0647H258.633L257.378 97.8633L257.539 97.9169L259.04 96.3835L259.898 97.1449L259.244 97.8955C258.879 98.303 258.536 98.6104 258.214 98.8177C257.9 99.025 257.557 99.1287 257.185 99.1287ZM263.733 99.1287C262.911 99.1287 262.303 98.9214 261.91 98.5067C261.517 98.0849 261.32 97.5059 261.32 96.7695C261.32 96.2548 261.399 95.7866 261.556 95.3648C261.713 94.943 261.931 94.582 262.21 94.2817C262.496 93.9814 262.839 93.7491 263.239 93.5847C263.64 93.4203 264.087 93.338 264.58 93.338C264.859 93.338 265.12 93.3702 265.363 93.4346C265.613 93.4989 265.831 93.5954 266.017 93.7241C266.203 93.8456 266.349 94.0029 266.456 94.1959C266.564 94.3818 266.617 94.6034 266.617 94.8608C266.617 95.0824 266.571 95.304 266.478 95.5256C266.385 95.7472 266.203 95.951 265.931 96.1369C265.666 96.3156 265.288 96.4693 264.794 96.598C264.308 96.7195 263.672 96.7946 262.886 96.8231C262.878 96.866 262.875 96.9018 262.875 96.9304C262.875 96.9518 262.875 96.9769 262.875 97.0054C262.875 97.3057 262.957 97.5345 263.121 97.6917C263.286 97.849 263.558 97.9277 263.936 97.9277C264.087 97.9277 264.222 97.9134 264.344 97.8848C264.473 97.8562 264.594 97.8061 264.709 97.7346C264.83 97.656 264.948 97.5595 265.062 97.4451C265.184 97.3236 265.316 97.1699 265.459 96.984L266.435 97.6167C266.292 97.824 266.135 98.0206 265.963 98.2065C265.799 98.3852 265.609 98.546 265.395 98.689C265.18 98.8249 264.937 98.9321 264.666 99.0107C264.394 99.0894 264.083 99.1287 263.733 99.1287ZM264.419 94.4426C264.076 94.4426 263.783 94.5462 263.54 94.7535C263.297 94.9537 263.125 95.2933 263.025 95.7723L262.993 95.9224C263.486 95.8938 263.872 95.8473 264.151 95.783C264.437 95.7186 264.648 95.6436 264.784 95.5578C264.927 95.472 265.016 95.3791 265.052 95.279C265.087 95.1789 265.105 95.086 265.105 95.0002C265.105 94.6284 264.877 94.4426 264.419 94.4426ZM270.077 99.1287C269.319 99.1287 268.743 98.9249 268.35 98.5174C267.957 98.11 267.761 97.5345 267.761 96.791C267.761 96.3191 267.828 95.8759 267.964 95.4613C268.1 95.0395 268.297 94.6713 268.554 94.3568C268.811 94.0422 269.13 93.7956 269.508 93.6169C269.894 93.431 270.334 93.338 270.827 93.338C271.464 93.338 271.95 93.4667 272.286 93.7241C272.622 93.9814 272.851 94.321 272.972 94.7428L271.696 95.3433C271.617 95.1146 271.51 94.9323 271.374 94.7964C271.238 94.6606 271.013 94.5927 270.699 94.5927C270.391 94.5927 270.13 94.6928 269.916 94.8929C269.709 95.0931 269.573 95.3862 269.508 95.7723L269.401 96.4157C269.387 96.48 269.376 96.5586 269.369 96.6516C269.362 96.7445 269.358 96.8339 269.358 96.9197C269.358 97.2056 269.43 97.438 269.573 97.6167C269.723 97.7883 269.977 97.874 270.334 97.874C270.449 97.874 270.556 97.8633 270.656 97.8419C270.756 97.8133 270.863 97.7561 270.978 97.6703C271.099 97.5845 271.231 97.4666 271.374 97.3164C271.524 97.1591 271.696 96.9518 271.889 96.6945L272.865 97.3271C272.679 97.6203 272.493 97.8776 272.307 98.0992C272.121 98.3209 271.918 98.5103 271.696 98.6676C271.474 98.8177 271.231 98.9321 270.967 99.0107C270.702 99.0894 270.406 99.1287 270.077 99.1287ZM276.56 99.1287C276.088 99.1287 275.742 99.0036 275.52 98.7534C275.306 98.5031 275.198 98.1707 275.198 97.7561C275.198 97.656 275.202 97.5559 275.209 97.4558C275.223 97.3486 275.245 97.2128 275.273 97.0483L275.67 94.6892H274.255L274.458 93.4667H275.348C275.577 93.4667 275.749 93.4203 275.863 93.3273C275.985 93.2344 276.063 93.0664 276.099 92.8233L276.314 91.5151H277.772L277.45 93.4667H279.616L279.413 94.6892H277.247L276.732 97.7775L276.946 97.8526L278.619 96.5336L279.391 97.4129L278.748 97.9706C278.519 98.1636 278.312 98.3351 278.126 98.4853C277.94 98.6283 277.761 98.7498 277.59 98.8499C277.425 98.9428 277.261 99.0107 277.096 99.0536C276.932 99.1037 276.753 99.1287 276.56 99.1287ZM283.644 92.7375C283.323 92.7375 283.094 92.6768 282.958 92.5552C282.829 92.4266 282.765 92.2693 282.765 92.0834C282.765 92.0477 282.768 92.0012 282.776 91.944C282.783 91.8797 282.797 91.7831 282.819 91.6545C282.854 91.4257 282.951 91.2506 283.108 91.129C283.265 91.0075 283.505 90.9467 283.827 90.9467C284.148 90.9467 284.373 91.0111 284.502 91.1397C284.638 91.2613 284.706 91.415 284.706 91.6009C284.706 91.6366 284.702 91.6866 284.695 91.751C284.688 91.8082 284.674 91.9011 284.652 92.0298C284.616 92.2586 284.52 92.4337 284.363 92.5552C284.205 92.6768 283.966 92.7375 283.644 92.7375ZM283.205 99.1287C282.761 99.1287 282.429 99.0143 282.207 98.7855C281.986 98.5496 281.875 98.2351 281.875 97.8419C281.875 97.7203 281.882 97.6024 281.896 97.488C281.911 97.3736 281.939 97.2056 281.982 96.984L282.411 94.6892H280.738L280.942 93.4667H284.202L283.376 97.8633L283.558 97.9169L285.06 96.3835L285.918 97.1449L285.263 97.8955C284.899 98.303 284.556 98.6104 284.234 98.8177C283.919 99.025 283.576 99.1287 283.205 99.1287ZM289.281 99.1287C288.523 99.1287 287.937 98.9178 287.522 98.496C287.107 98.0671 286.9 97.4844 286.9 96.7481C286.9 96.2191 286.975 95.7437 287.125 95.3219C287.282 94.9001 287.497 94.5426 287.769 94.2495C288.047 93.9564 288.376 93.7312 288.755 93.574C289.141 93.4167 289.566 93.338 290.031 93.338C290.789 93.338 291.375 93.5525 291.79 93.9814C292.204 94.4032 292.412 94.9823 292.412 95.7186C292.412 96.2477 292.333 96.7231 292.176 97.1449C292.026 97.5666 291.811 97.9241 291.532 98.2172C291.261 98.5103 290.932 98.7355 290.546 98.8928C290.167 99.05 289.745 99.1287 289.281 99.1287ZM289.398 97.9598C289.742 97.9598 290.02 97.8562 290.235 97.6489C290.457 97.4415 290.6 97.1449 290.664 96.7588L290.803 95.9224C290.818 95.858 290.828 95.7866 290.835 95.7079C290.85 95.6221 290.857 95.5471 290.857 95.4827C290.857 95.1539 290.771 94.9108 290.6 94.7535C290.435 94.5891 290.206 94.5069 289.913 94.5069C289.57 94.5069 289.288 94.6106 289.066 94.8179C288.852 95.0252 288.712 95.3219 288.648 95.7079L288.508 96.5443C288.494 96.6087 288.48 96.6837 288.466 96.7695C288.458 96.8482 288.455 96.9197 288.455 96.984C288.455 97.3129 288.537 97.5595 288.701 97.7239C288.873 97.8812 289.105 97.9598 289.398 97.9598ZM293.137 99L294.059 93.4667H295.625L295.41 94.7857H295.464C295.671 94.3353 295.911 93.9814 296.182 93.7241C296.461 93.4667 296.822 93.338 297.265 93.338C297.537 93.338 297.766 93.3809 297.952 93.4667C298.145 93.5525 298.302 93.6705 298.423 93.8206C298.545 93.9636 298.634 94.1316 298.691 94.3246C298.749 94.5176 298.777 94.7214 298.777 94.9358C298.777 95.0931 298.767 95.254 298.745 95.4184C298.731 95.5828 298.702 95.7937 298.659 96.0511L298.166 99H296.6L297.126 95.858C297.14 95.758 297.154 95.6579 297.169 95.5578C297.19 95.4506 297.201 95.329 297.201 95.1932C297.201 95.1217 297.19 95.0466 297.169 94.968C297.147 94.8894 297.112 94.8179 297.062 94.7535C297.011 94.6892 296.944 94.6391 296.858 94.6034C296.779 94.5605 296.679 94.5391 296.558 94.5391C296.372 94.5391 296.211 94.582 296.075 94.6677C295.939 94.7535 295.81 94.8786 295.689 95.0431C295.61 95.1503 295.514 95.3004 295.399 95.4934C295.292 95.6793 295.221 95.8866 295.185 96.1154L294.702 99H293.137ZM308.57 99.1287C307.812 99.1287 307.226 98.9178 306.811 98.496C306.397 98.0671 306.189 97.4844 306.189 96.7481C306.189 96.2191 306.265 95.7437 306.415 95.3219C306.572 94.9001 306.786 94.5426 307.058 94.2495C307.337 93.9564 307.666 93.7312 308.045 93.574C308.431 93.4167 308.856 93.338 309.321 93.338C310.079 93.338 310.665 93.5525 311.079 93.9814C311.494 94.4032 311.701 94.9823 311.701 95.7186C311.701 96.2477 311.623 96.7231 311.465 97.1449C311.315 97.5666 311.101 97.9241 310.822 98.2172C310.55 98.5103 310.221 98.7355 309.835 98.8928C309.457 99.05 309.035 99.1287 308.57 99.1287ZM308.688 97.9598C309.031 97.9598 309.31 97.8562 309.524 97.6489C309.746 97.4415 309.889 97.1449 309.953 96.7588L310.093 95.9224C310.107 95.858 310.118 95.7866 310.125 95.7079C310.139 95.6221 310.146 95.5471 310.146 95.4827C310.146 95.1539 310.061 94.9108 309.889 94.7535C309.725 94.5891 309.496 94.5069 309.203 94.5069C308.86 94.5069 308.577 94.6106 308.356 94.8179C308.141 95.0252 308.002 95.3219 307.937 95.7079L307.798 96.5443C307.784 96.6087 307.769 96.6837 307.755 96.7695C307.748 96.8482 307.744 96.9197 307.744 96.984C307.744 97.3129 307.827 97.5595 307.991 97.7239C308.163 97.8812 308.395 97.9598 308.688 97.9598ZM314.013 101.273C313.82 101.273 313.645 101.241 313.488 101.177C313.331 101.113 313.184 101.023 313.048 100.909C312.912 100.794 312.78 100.655 312.652 100.491C312.523 100.333 312.391 100.155 312.255 99.9544L311.815 99.3217L312.887 98.5818L313.992 100.04L314.121 99.9866L315 94.6892H313.252L313.456 93.4667H315.204L315.343 92.6303C315.422 92.1656 315.615 91.7903 315.922 91.5043C316.23 91.2112 316.673 91.0647 317.252 91.0647H319.161L318.957 92.2871H316.962L316.769 93.4667H318.764L318.56 94.6892H316.555L315.74 99.5683C315.64 100.169 315.44 100.601 315.139 100.866C314.839 101.138 314.464 101.273 314.013 101.273ZM326.176 99.1287C325.819 99.1287 325.558 99.0214 325.393 98.807C325.236 98.5925 325.157 98.3101 325.157 97.9598C325.157 97.8597 325.164 97.7096 325.179 97.5094C325.2 97.3021 325.225 97.1127 325.254 96.9411L325.833 93.4667H327.098L326.444 96.9947C326.43 97.0519 326.419 97.1306 326.412 97.2306C326.405 97.3307 326.401 97.4129 326.401 97.4773C326.401 97.5917 326.426 97.6846 326.476 97.7561C326.526 97.8204 326.612 97.8526 326.734 97.8526C326.841 97.8526 326.937 97.8169 327.023 97.7454C327.116 97.6667 327.202 97.5631 327.281 97.4344C327.331 97.3557 327.374 97.2592 327.409 97.1449C327.452 97.0305 327.481 96.9125 327.495 96.791L328.01 93.4667H329.222L328.642 97.0483C328.628 97.1055 328.614 97.1842 328.6 97.2843C328.592 97.3843 328.589 97.4594 328.589 97.5094C328.589 97.6095 328.61 97.6989 328.653 97.7775C328.703 97.8562 328.789 97.8955 328.911 97.8955C329.039 97.8955 329.168 97.8169 329.297 97.6596C329.425 97.5023 329.536 97.295 329.629 97.0376C329.729 96.7731 329.808 96.4729 329.865 96.1369C329.929 95.7937 329.961 95.4398 329.961 95.0752C329.961 94.825 329.944 94.5784 329.908 94.3353C329.879 94.0923 329.833 93.8814 329.768 93.7026L330.862 93.3809C330.969 93.5811 331.055 93.8242 331.12 94.1101C331.191 94.3961 331.227 94.7214 331.227 95.086C331.227 95.7294 331.141 96.3227 330.969 96.866C330.805 97.4094 330.576 97.8633 330.283 98.2279C330.054 98.521 329.797 98.7462 329.511 98.9035C329.225 99.0536 328.932 99.1287 328.632 99.1287C328.439 99.1287 328.274 99.0965 328.138 99.0322C328.01 98.9678 327.903 98.882 327.817 98.7748C327.738 98.6676 327.681 98.5425 327.645 98.3995C327.617 98.2565 327.606 98.1064 327.613 97.9491H327.538C327.281 98.7355 326.827 99.1287 326.176 99.1287ZM334.29 99.1287C333.532 99.1287 332.946 98.9178 332.531 98.496C332.116 98.0671 331.909 97.4844 331.909 96.7481C331.909 96.2191 331.984 95.7437 332.134 95.3219C332.291 94.9001 332.506 94.5426 332.778 94.2495C333.056 93.9564 333.385 93.7312 333.764 93.574C334.15 93.4167 334.575 93.338 335.04 93.338C335.798 93.338 336.384 93.5525 336.799 93.9814C337.213 94.4032 337.421 94.9823 337.421 95.7186C337.421 96.2477 337.342 96.7231 337.185 97.1449C337.035 97.5666 336.82 97.9241 336.541 98.2172C336.27 98.5103 335.941 98.7355 335.555 98.8928C335.176 99.05 334.754 99.1287 334.29 99.1287ZM334.407 97.9598C334.751 97.9598 335.029 97.8562 335.244 97.6489C335.466 97.4415 335.608 97.1449 335.673 96.7588L335.812 95.9224C335.827 95.858 335.837 95.7866 335.844 95.7079C335.859 95.6221 335.866 95.5471 335.866 95.4827C335.866 95.1539 335.78 94.9108 335.608 94.7535C335.444 94.5891 335.215 94.5069 334.922 94.5069C334.579 94.5069 334.297 94.6106 334.075 94.8179C333.861 95.0252 333.721 95.3219 333.657 95.7079L333.517 96.5443C333.503 96.6087 333.489 96.6837 333.475 96.7695C333.467 96.8482 333.464 96.9197 333.464 96.984C333.464 97.3129 333.546 97.5595 333.71 97.7239C333.882 97.8812 334.114 97.9598 334.407 97.9598ZM339.443 99L340.162 94.6892H338.896L339.1 93.4667H341.931L341.642 95.1396H341.706C341.935 94.6106 342.224 94.1995 342.575 93.9064C342.925 93.6133 343.372 93.4667 343.915 93.4667H344.28L344.001 95.0323H343.025C342.732 95.0323 342.496 95.0717 342.317 95.1503C342.146 95.2289 341.995 95.3505 341.867 95.5149C341.795 95.6007 341.713 95.7329 341.62 95.9117C341.527 96.0904 341.463 96.2763 341.427 96.4693L341.009 99H339.443ZM345.884 91.0647H347.449L346.838 94.7857H346.903C347.088 94.3711 347.335 94.0279 347.642 93.7563C347.95 93.4774 348.34 93.338 348.811 93.338C349.269 93.338 349.623 93.4667 349.873 93.7241C350.123 93.9743 350.248 94.2817 350.248 94.6463C350.248 95.161 350.087 95.5792 349.766 95.9009C349.444 96.2226 348.972 96.4764 348.35 96.6623L348.801 97.8419L348.961 97.874L349.841 97.0162L350.591 97.7561L350.034 98.3566C349.805 98.6068 349.569 98.7998 349.326 98.9357C349.083 99.0643 348.818 99.1287 348.533 99.1287C348.189 99.1287 347.921 99.0322 347.728 98.8391C347.535 98.6461 347.378 98.378 347.256 98.0349L346.72 96.5658C347.364 96.3799 347.85 96.1797 348.179 95.9653C348.515 95.7508 348.683 95.472 348.683 95.1289C348.683 94.943 348.618 94.7929 348.49 94.6785C348.368 94.5641 348.193 94.5069 347.964 94.5069C347.828 94.5069 347.693 94.5426 347.557 94.6141C347.421 94.6785 347.271 94.8143 347.106 95.0216C346.999 95.1574 346.899 95.3111 346.806 95.4827C346.72 95.6471 346.656 95.858 346.613 96.1154L346.13 99H344.565L345.884 91.0647ZM353.504 99.1287C352.946 99.1287 352.464 99.0536 352.056 98.9035C351.656 98.7462 351.363 98.521 351.177 98.2279L352.056 97.3593C352.214 97.5809 352.428 97.7489 352.7 97.8633C352.979 97.9706 353.282 98.0242 353.611 98.0242C353.933 98.0242 354.187 97.9741 354.373 97.874C354.566 97.7668 354.662 97.6131 354.662 97.4129C354.662 97.2628 354.609 97.1556 354.501 97.0912C354.394 97.0197 354.258 96.9661 354.094 96.9304L353.3 96.7588C353.093 96.7159 352.896 96.6587 352.71 96.5872C352.532 96.5157 352.374 96.4228 352.239 96.3084C352.103 96.1869 351.996 96.0403 351.917 95.8688C351.845 95.6972 351.81 95.4899 351.81 95.2468C351.81 94.9394 351.87 94.6677 351.992 94.4318C352.121 94.1888 352.296 93.9886 352.517 93.8313C352.746 93.6669 353.014 93.5454 353.322 93.4667C353.629 93.3809 353.962 93.338 354.319 93.338C354.812 93.338 355.255 93.4095 355.649 93.5525C356.042 93.6883 356.331 93.8778 356.517 94.1209L355.659 95.0002C355.538 94.8429 355.356 94.7106 355.113 94.6034C354.869 94.4962 354.591 94.4426 354.276 94.4426C353.997 94.4426 353.772 94.4926 353.601 94.5927C353.436 94.6928 353.354 94.8429 353.354 95.0431C353.354 95.1932 353.4 95.3004 353.493 95.3648C353.593 95.422 353.729 95.4684 353.901 95.5042L354.726 95.6865C355.191 95.7866 355.556 95.9474 355.82 96.169C356.085 96.3906 356.217 96.7266 356.217 97.177C356.217 97.4844 356.153 97.7597 356.024 98.0027C355.895 98.2386 355.713 98.4424 355.477 98.614C355.241 98.7784 354.955 98.9071 354.619 99C354.29 99.0858 353.919 99.1287 353.504 99.1287ZM237.981 113.129C237.509 113.129 237.163 113.004 236.941 112.753C236.726 112.503 236.619 112.171 236.619 111.756C236.619 111.656 236.623 111.556 236.63 111.456C236.644 111.349 236.666 111.213 236.694 111.048L237.091 108.689H235.676L235.879 107.467H236.769C236.998 107.467 237.17 107.42 237.284 107.327C237.406 107.234 237.484 107.066 237.52 106.823L237.734 105.515H239.193L238.871 107.467H241.037L240.834 108.689H238.667L238.153 111.778L238.367 111.853L240.04 110.534L240.812 111.413L240.169 111.971C239.94 112.164 239.733 112.335 239.547 112.485C239.361 112.628 239.182 112.75 239.011 112.85C238.846 112.943 238.682 113.011 238.517 113.054C238.353 113.104 238.174 113.129 237.981 113.129ZM243.017 105.065H244.583L243.971 108.786H244.025C244.232 108.335 244.472 107.981 244.743 107.724C245.022 107.467 245.383 107.338 245.826 107.338C246.098 107.338 246.327 107.381 246.513 107.467C246.706 107.553 246.863 107.67 246.985 107.821C247.106 107.964 247.195 108.132 247.253 108.325C247.31 108.518 247.338 108.721 247.338 108.936C247.338 109.093 247.328 109.254 247.306 109.418C247.292 109.583 247.263 109.794 247.22 110.051L246.727 113H245.162L245.687 109.858C245.701 109.758 245.716 109.658 245.73 109.558C245.751 109.451 245.762 109.329 245.762 109.193C245.762 109.122 245.751 109.047 245.73 108.968C245.708 108.889 245.673 108.818 245.623 108.754C245.573 108.689 245.505 108.639 245.419 108.603C245.34 108.561 245.24 108.539 245.119 108.539C244.933 108.539 244.772 108.582 244.636 108.668C244.5 108.754 244.372 108.879 244.25 109.043C244.171 109.15 244.075 109.3 243.961 109.493C243.853 109.679 243.782 109.887 243.746 110.115L243.264 113H241.698L243.017 105.065ZM251.581 113L251.795 111.681H251.742C251.634 111.895 251.52 112.092 251.398 112.271C251.284 112.442 251.152 112.593 251.002 112.721C250.859 112.85 250.694 112.95 250.508 113.021C250.33 113.093 250.122 113.129 249.886 113.129C249.593 113.129 249.343 113.079 249.136 112.979C248.936 112.878 248.771 112.735 248.643 112.55C248.514 112.357 248.417 112.128 248.353 111.863C248.296 111.599 248.267 111.306 248.267 110.984C248.267 110.434 248.328 109.937 248.449 109.493C248.571 109.043 248.743 108.661 248.964 108.346C249.186 108.024 249.45 107.778 249.758 107.606C250.072 107.427 250.423 107.338 250.809 107.338C251.245 107.338 251.574 107.442 251.795 107.649C252.024 107.849 252.178 108.132 252.256 108.496H252.331L252.503 107.467H254.069L253.146 113H251.581ZM250.583 111.917C250.776 111.917 250.948 111.87 251.098 111.778C251.248 111.685 251.388 111.556 251.516 111.391C251.602 111.291 251.699 111.152 251.806 110.973C251.913 110.787 251.985 110.58 252.02 110.351L252.171 109.461C252.221 109.168 252.174 108.943 252.031 108.786C251.895 108.628 251.656 108.55 251.313 108.55C250.927 108.55 250.63 108.664 250.423 108.893C250.215 109.115 250.076 109.436 250.004 109.858L249.897 110.501C249.883 110.566 249.872 110.641 249.865 110.727C249.858 110.805 249.854 110.891 249.854 110.984C249.861 111.249 249.915 111.47 250.015 111.649C250.122 111.828 250.312 111.917 250.583 111.917ZM257.271 113.129C256.799 113.129 256.452 113.004 256.23 112.753C256.016 112.503 255.909 112.171 255.909 111.756C255.909 111.656 255.912 111.556 255.92 111.456C255.934 111.349 255.955 111.213 255.984 111.048L256.381 108.689H254.965L255.169 107.467H256.059C256.288 107.467 256.459 107.42 256.574 107.327C256.695 107.234 256.774 107.066 256.81 106.823L257.024 105.515H258.482L258.161 107.467H260.327L260.123 108.689H257.957L257.442 111.778L257.657 111.853L259.33 110.534L260.102 111.413L259.458 111.971C259.229 112.164 259.022 112.335 258.836 112.485C258.65 112.628 258.472 112.75 258.3 112.85C258.136 112.943 257.971 113.011 257.807 113.054C257.642 113.104 257.464 113.129 257.271 113.129ZM270.785 106.738C270.463 106.738 270.234 106.677 270.098 106.555C269.97 106.427 269.905 106.269 269.905 106.083C269.905 106.048 269.909 106.001 269.916 105.944C269.923 105.88 269.937 105.783 269.959 105.654C269.995 105.426 270.091 105.251 270.248 105.129C270.406 105.007 270.645 104.947 270.967 104.947C271.289 104.947 271.514 105.011 271.642 105.14C271.778 105.261 271.846 105.415 271.846 105.601C271.846 105.637 271.843 105.687 271.835 105.751C271.828 105.808 271.814 105.901 271.793 106.03C271.757 106.259 271.66 106.434 271.503 106.555C271.346 106.677 271.106 106.738 270.785 106.738ZM270.345 113.129C269.902 113.129 269.569 113.014 269.348 112.786C269.126 112.55 269.015 112.235 269.015 111.842C269.015 111.72 269.022 111.602 269.037 111.488C269.051 111.374 269.079 111.206 269.122 110.984L269.551 108.689H267.878L268.082 107.467H271.342L270.516 111.863L270.699 111.917L272.2 110.383L273.058 111.145L272.404 111.895C272.039 112.303 271.696 112.61 271.374 112.818C271.06 113.025 270.717 113.129 270.345 113.129ZM273.847 113L274.769 107.467H276.335L276.121 108.786H276.174C276.382 108.335 276.621 107.981 276.893 107.724C277.171 107.467 277.532 107.338 277.976 107.338C278.247 107.338 278.476 107.381 278.662 107.467C278.855 107.553 279.012 107.67 279.134 107.821C279.255 107.964 279.345 108.132 279.402 108.325C279.459 108.518 279.488 108.721 279.488 108.936C279.488 109.093 279.477 109.254 279.456 109.418C279.441 109.583 279.413 109.794 279.37 110.051L278.876 113H277.311L277.836 109.858C277.851 109.758 277.865 109.658 277.879 109.558C277.901 109.451 277.911 109.329 277.911 109.193C277.911 109.122 277.901 109.047 277.879 108.968C277.858 108.889 277.822 108.818 277.772 108.754C277.722 108.689 277.654 108.639 277.568 108.603C277.49 108.561 277.39 108.539 277.268 108.539C277.082 108.539 276.921 108.582 276.785 108.668C276.65 108.754 276.521 108.879 276.399 109.043C276.321 109.15 276.224 109.3 276.11 109.493C276.003 109.679 275.931 109.887 275.895 110.115L275.413 113H273.847ZM282.776 113.129C282.218 113.129 281.735 113.054 281.328 112.903C280.928 112.746 280.635 112.521 280.449 112.228L281.328 111.359C281.485 111.581 281.7 111.749 281.971 111.863C282.25 111.971 282.554 112.024 282.883 112.024C283.205 112.024 283.458 111.974 283.644 111.874C283.837 111.767 283.934 111.613 283.934 111.413C283.934 111.263 283.88 111.156 283.773 111.091C283.666 111.02 283.53 110.966 283.365 110.93L282.572 110.759C282.365 110.716 282.168 110.659 281.982 110.587C281.803 110.516 281.646 110.423 281.51 110.308C281.374 110.187 281.267 110.04 281.189 109.869C281.117 109.697 281.081 109.49 281.081 109.247C281.081 108.939 281.142 108.668 281.264 108.432C281.392 108.189 281.567 107.989 281.789 107.831C282.018 107.667 282.286 107.545 282.593 107.467C282.901 107.381 283.233 107.338 283.591 107.338C284.084 107.338 284.527 107.41 284.92 107.553C285.313 107.688 285.603 107.878 285.789 108.121L284.931 109C284.809 108.843 284.627 108.711 284.384 108.603C284.141 108.496 283.862 108.443 283.548 108.443C283.269 108.443 283.044 108.493 282.872 108.593C282.708 108.693 282.625 108.843 282.625 109.043C282.625 109.193 282.672 109.3 282.765 109.365C282.865 109.422 283.001 109.468 283.172 109.504L283.998 109.686C284.463 109.787 284.827 109.947 285.092 110.169C285.356 110.391 285.489 110.727 285.489 111.177C285.489 111.484 285.424 111.76 285.296 112.003C285.167 112.239 284.985 112.442 284.749 112.614C284.513 112.778 284.227 112.907 283.891 113C283.562 113.086 283.19 113.129 282.776 113.129ZM287.586 107.467H289.152L288.937 108.786H288.991C289.098 108.571 289.209 108.378 289.323 108.207C289.445 108.028 289.577 107.874 289.72 107.746C289.87 107.617 290.035 107.517 290.213 107.445C290.399 107.374 290.61 107.338 290.846 107.338C291.139 107.338 291.386 107.388 291.586 107.488C291.793 107.588 291.961 107.735 292.09 107.928C292.219 108.114 292.312 108.339 292.369 108.603C292.433 108.868 292.465 109.161 292.465 109.483C292.465 110.033 292.405 110.534 292.283 110.984C292.162 111.427 291.99 111.81 291.768 112.131C291.547 112.446 291.279 112.693 290.964 112.871C290.657 113.043 290.31 113.129 289.924 113.129C289.488 113.129 289.155 113.029 288.927 112.828C288.705 112.621 288.555 112.335 288.476 111.971H288.401L287.865 115.145H286.299L287.586 107.467ZM289.42 111.917C289.806 111.917 290.103 111.806 290.31 111.585C290.517 111.356 290.657 111.03 290.728 110.609L290.835 109.965C290.85 109.901 290.86 109.829 290.868 109.751C290.875 109.665 290.878 109.576 290.878 109.483C290.871 109.218 290.814 108.997 290.707 108.818C290.607 108.639 290.421 108.55 290.149 108.55C289.956 108.55 289.785 108.596 289.634 108.689C289.484 108.782 289.345 108.911 289.216 109.075C289.13 109.175 289.034 109.318 288.927 109.504C288.819 109.683 288.748 109.887 288.712 110.115L288.562 111.005C288.512 111.299 288.555 111.524 288.691 111.681C288.834 111.838 289.077 111.917 289.42 111.917ZM296.504 106.738C296.182 106.738 295.953 106.677 295.818 106.555C295.689 106.427 295.625 106.269 295.625 106.083C295.625 106.048 295.628 106.001 295.635 105.944C295.642 105.88 295.657 105.783 295.678 105.654C295.714 105.426 295.81 105.251 295.968 105.129C296.125 105.007 296.365 104.947 296.686 104.947C297.008 104.947 297.233 105.011 297.362 105.14C297.498 105.261 297.566 105.415 297.566 105.601C297.566 105.637 297.562 105.687 297.555 105.751C297.548 105.808 297.533 105.901 297.512 106.03C297.476 106.259 297.38 106.434 297.222 106.555C297.065 106.677 296.826 106.738 296.504 106.738ZM296.064 113.129C295.621 113.129 295.289 113.014 295.067 112.786C294.845 112.55 294.735 112.235 294.735 111.842C294.735 111.72 294.742 111.602 294.756 111.488C294.77 111.374 294.799 111.206 294.842 110.984L295.271 108.689H293.598L293.802 107.467H297.062L296.236 111.863L296.418 111.917L297.919 110.383L298.777 111.145L298.123 111.895C297.759 112.303 297.415 112.61 297.094 112.818C296.779 113.025 296.436 113.129 296.064 113.129ZM300.864 113L301.583 108.689H300.317L300.521 107.467H303.352L303.062 109.14H303.127C303.356 108.611 303.645 108.199 303.995 107.906C304.346 107.613 304.792 107.467 305.336 107.467H305.7L305.422 109.032H304.446C304.153 109.032 303.917 109.072 303.738 109.15C303.566 109.229 303.416 109.35 303.288 109.515C303.216 109.601 303.134 109.733 303.041 109.912C302.948 110.09 302.884 110.276 302.848 110.469L302.43 113H300.864ZM308.742 113.129C307.92 113.129 307.312 112.921 306.919 112.507C306.525 112.085 306.329 111.506 306.329 110.77C306.329 110.255 306.408 109.787 306.565 109.365C306.722 108.943 306.94 108.582 307.219 108.282C307.505 107.981 307.848 107.749 308.248 107.585C308.649 107.42 309.096 107.338 309.589 107.338C309.868 107.338 310.129 107.37 310.372 107.435C310.622 107.499 310.84 107.595 311.026 107.724C311.212 107.846 311.358 108.003 311.465 108.196C311.573 108.382 311.626 108.603 311.626 108.861C311.626 109.082 311.58 109.304 311.487 109.526C311.394 109.747 311.212 109.951 310.94 110.137C310.675 110.316 310.297 110.469 309.803 110.598C309.317 110.719 308.681 110.795 307.895 110.823C307.887 110.866 307.884 110.902 307.884 110.93C307.884 110.952 307.884 110.977 307.884 111.005C307.884 111.306 307.966 111.534 308.13 111.692C308.295 111.849 308.567 111.928 308.945 111.928C309.096 111.928 309.231 111.913 309.353 111.885C309.482 111.856 309.603 111.806 309.717 111.735C309.839 111.656 309.957 111.559 310.071 111.445C310.193 111.324 310.325 111.17 310.468 110.984L311.444 111.617C311.301 111.824 311.144 112.021 310.972 112.206C310.808 112.385 310.618 112.546 310.404 112.689C310.189 112.825 309.946 112.932 309.675 113.011C309.403 113.089 309.092 113.129 308.742 113.129ZM309.428 108.443C309.085 108.443 308.792 108.546 308.549 108.754C308.306 108.954 308.134 109.293 308.034 109.772L308.002 109.922C308.495 109.894 308.881 109.847 309.16 109.783C309.446 109.719 309.657 109.644 309.793 109.558C309.936 109.472 310.025 109.379 310.061 109.279C310.096 109.179 310.114 109.086 310.114 109C310.114 108.628 309.885 108.443 309.428 108.443ZM314.893 113.129C314.535 113.129 314.281 113.061 314.131 112.925C313.981 112.782 313.906 112.61 313.906 112.41C313.906 112.303 313.928 112.121 313.97 111.863C314.006 111.635 314.121 111.434 314.314 111.263C314.514 111.091 314.81 111.005 315.204 111.005C315.561 111.005 315.815 111.077 315.965 111.22C316.115 111.356 316.19 111.524 316.19 111.724C316.19 111.831 316.169 112.013 316.126 112.271C316.09 112.5 315.972 112.7 315.772 112.871C315.579 113.043 315.286 113.129 314.893 113.129Z" fill="#B3D800"/>
<path d="M245.699 75.9483H240.846V84H236.682V64.753H240.846V72.5566H245.699V64.753H249.863V84H245.699V75.9483ZM260.192 84.3309C257.803 84.3309 255.992 83.6691 254.76 82.3455C253.528 81.022 252.913 79.2204 252.913 76.9409C252.913 75.7828 253.069 74.7442 253.381 73.825C253.712 72.8875 254.172 72.097 254.76 71.4536C255.367 70.7918 256.093 70.2955 256.939 69.9646C257.803 69.6153 258.768 69.4407 259.834 69.4407C260.9 69.4407 261.856 69.6153 262.702 69.9646C263.547 70.2955 264.264 70.7734 264.852 71.3985C265.441 72.0235 265.891 72.7864 266.204 73.6871C266.534 74.5695 266.7 75.5622 266.7 76.6652V77.8785H256.966V78.1266C256.966 79.0458 257.251 79.7903 257.821 80.3602C258.391 80.9117 259.227 81.1874 260.33 81.1874C261.176 81.1874 261.902 81.0311 262.509 80.7186C263.115 80.3877 263.639 79.9557 264.08 79.4226L266.286 81.8216C265.735 82.5018 264.963 83.09 263.97 83.5864C262.977 84.0827 261.718 84.3309 260.192 84.3309ZM259.861 72.3636C258.979 72.3636 258.271 72.6393 257.738 73.1908C257.223 73.7239 256.966 74.45 256.966 75.3692V75.5898H262.702V75.3692C262.702 74.4317 262.444 73.6963 261.929 73.1632C261.433 72.6301 260.744 72.3636 259.861 72.3636ZM270.108 80.8289H273.39V72.9426H270.108V69.7716H277.471V73.7974H277.664C277.792 73.2827 277.967 72.7864 278.188 72.3084C278.427 71.8121 278.721 71.3801 279.07 71.0124C279.438 70.6264 279.879 70.3231 280.394 70.1025C280.908 69.8819 281.515 69.7716 282.214 69.7716H283.565V73.5217H280.531C279.52 73.5217 278.758 73.825 278.243 74.4317C277.728 75.0199 277.471 75.746 277.471 76.61V80.8289H282.158V84H270.108V80.8289ZM292.874 84.3309C291.771 84.3309 290.778 84.1654 289.896 83.8346C289.014 83.4853 288.26 82.9889 287.635 82.3455C287.028 81.7021 286.56 80.9209 286.229 80.0017C285.898 79.0826 285.732 78.0439 285.732 76.8858C285.732 75.7277 285.898 74.689 286.229 73.7699C286.56 72.8507 287.028 72.0694 287.635 71.426C288.26 70.7826 289.014 70.2955 289.896 69.9646C290.778 69.6153 291.771 69.4407 292.874 69.4407C293.977 69.4407 294.97 69.6153 295.852 69.9646C296.734 70.2955 297.479 70.7826 298.086 71.426C298.711 72.0694 299.189 72.8507 299.52 73.7699C299.85 74.689 300.016 75.7277 300.016 76.8858C300.016 78.0439 299.85 79.0826 299.52 80.0017C299.189 80.9209 298.711 81.7021 298.086 82.3455C297.479 82.9889 296.734 83.4853 295.852 83.8346C294.97 84.1654 293.977 84.3309 292.874 84.3309ZM292.874 81.2977C293.793 81.2977 294.51 81.0128 295.025 80.4429C295.54 79.873 295.797 79.0642 295.797 78.0163V75.7552C295.797 74.7074 295.54 73.8986 295.025 73.3287C294.51 72.7588 293.793 72.4739 292.874 72.4739C291.955 72.4739 291.238 72.7588 290.723 73.3287C290.209 73.8986 289.951 74.7074 289.951 75.7552V78.0163C289.951 79.0642 290.209 79.873 290.723 80.4429C291.238 81.0128 291.955 81.2977 292.874 81.2977ZM309.794 84.3309C307.404 84.3309 305.594 83.6691 304.362 82.3455C303.13 81.022 302.514 79.2204 302.514 76.9409C302.514 75.7828 302.671 74.7442 302.983 73.825C303.314 72.8875 303.774 72.097 304.362 71.4536C304.968 70.7918 305.695 70.2955 306.54 69.9646C307.404 69.6153 308.369 69.4407 309.436 69.4407C310.502 69.4407 311.458 69.6153 312.303 69.9646C313.149 70.2955 313.866 70.7734 314.454 71.3985C315.042 72.0235 315.493 72.7864 315.805 73.6871C316.136 74.5695 316.302 75.5622 316.302 76.6652V77.8785H306.568V78.1266C306.568 79.0458 306.853 79.7903 307.423 80.3602C307.992 80.9117 308.829 81.1874 309.932 81.1874C310.778 81.1874 311.504 81.0311 312.11 80.7186C312.717 80.3877 313.241 79.9557 313.682 79.4226L315.888 81.8216C315.336 82.5018 314.564 83.09 313.572 83.5864C312.579 84.0827 311.32 84.3309 309.794 84.3309ZM309.463 72.3636C308.581 72.3636 307.873 72.6393 307.34 73.1908C306.825 73.7239 306.568 74.45 306.568 75.3692V75.5898H312.303V75.3692C312.303 74.4317 312.046 73.6963 311.531 73.1632C311.035 72.6301 310.346 72.3636 309.463 72.3636ZM325.776 84.3309C324.195 84.3309 322.817 84.0919 321.64 83.614C320.482 83.136 319.609 82.4834 319.021 81.6562L321.309 79.5329C321.861 80.1396 322.504 80.6175 323.24 80.9668C323.993 81.2977 324.848 81.4631 325.804 81.4631C326.613 81.4631 327.247 81.3437 327.707 81.1047C328.166 80.8473 328.396 80.4613 328.396 79.9466C328.396 79.5421 328.24 79.2664 327.927 79.1193C327.615 78.9539 327.183 78.8252 326.631 78.7333L324.343 78.3748C323.699 78.2829 323.102 78.145 322.55 77.9612C321.999 77.759 321.521 77.4924 321.116 77.1615C320.712 76.8306 320.39 76.4262 320.151 75.9483C319.912 75.4703 319.793 74.8912 319.793 74.2111C319.793 72.722 320.363 71.5547 321.502 70.7091C322.642 69.8635 324.241 69.4407 326.3 69.4407C327.697 69.4407 328.883 69.6337 329.857 70.0197C330.85 70.3874 331.641 70.9205 332.229 71.6191L330.188 73.9353C329.766 73.4757 329.223 73.0897 328.561 72.7772C327.9 72.4647 327.1 72.3084 326.162 72.3084C324.582 72.3084 323.791 72.7864 323.791 73.7423C323.791 74.1651 323.947 74.4592 324.26 74.6247C324.572 74.7717 325.004 74.8912 325.556 74.9831L327.817 75.3416C328.46 75.4335 329.058 75.5806 329.609 75.7828C330.161 75.9666 330.639 76.224 331.043 76.5549C331.466 76.8858 331.797 77.2902 332.036 77.7682C332.275 78.2461 332.394 78.8252 332.394 79.5054C332.394 80.9944 331.815 82.1709 330.657 83.0349C329.517 83.8989 327.89 84.3309 325.776 84.3309Z" fill="#B3D800"/>
</svg>
