<svg width="600" height="257" viewBox="0 0 600 257" fill="none" xmlns="http://www.w3.org/2000/svg">
<path d="M52.8795 86.8936V84.2025H63.5327V86.8936H52.8795Z" fill="#B3D800"/>
<path d="M66.1873 86.8936V84.2025H76.8406V86.8936H66.1873Z" fill="#B3D800"/>
<path d="M79.4952 86.8936V84.2025H90.1484V86.8936H79.4952Z" fill="#B3D800"/>
<path d="M119.419 86.8936V84.2025H130.072V86.8936H119.419Z" fill="#B3D800"/>
<path d="M132.727 86.8936V84.2025H143.38V86.8936H132.727Z" fill="#B3D800"/>
<path d="M146.035 86.8936V84.2025H156.688V86.8936H146.035Z" fill="#B3D800"/>
<path d="M185.958 86.8936V84.2025H196.611V86.8936H185.958Z" fill="#B3D800"/>
<path d="M279.113 86.8936V84.2025H289.766V86.8936H279.113Z" fill="#B3D800"/>
<path d="M43.5 114.796V94.824H46.2965V114.796H43.5Z" fill="#B3D800"/>
<path d="M66.1873 115.997V113.305H76.8406V115.997H66.1873Z" fill="#B3D800"/>
<path d="M100.926 104.81C100.926 105.892 100.8 106.937 100.549 107.946C100.312 108.939 99.9792 109.866 99.5501 110.726C99.1358 111.586 98.6475 112.364 98.0853 113.061C97.523 113.758 96.9312 114.336 96.3098 114.796H93.025C93.7056 114.321 94.3567 113.765 94.9781 113.128C95.6143 112.505 96.1618 111.815 96.6205 111.059C97.094 110.303 97.4713 109.495 97.7524 108.635C98.0335 107.775 98.1741 106.878 98.1741 105.944V103.676C98.1741 102.741 98.0335 101.844 97.7524 100.985C97.4713 100.125 97.094 99.3165 96.6205 98.5603C96.1618 97.8042 95.6143 97.1147 94.9781 96.492C94.3567 95.8545 93.7056 95.2985 93.025 94.824H96.3098C96.9312 95.2985 97.523 95.8841 98.0853 96.581C98.6475 97.263 99.1358 98.034 99.5501 98.8939C99.9792 99.7539 100.312 100.688 100.549 101.696C100.8 102.69 100.926 103.727 100.926 104.81Z" fill="#B3D800"/>
<path d="M110.039 114.796V94.824H112.836V114.796H110.039Z" fill="#B3D800"/>
<path d="M132.727 115.997V113.305H143.38V115.997H132.727Z" fill="#B3D800"/>
<path d="M167.465 104.81C167.465 105.892 167.34 106.937 167.088 107.946C166.851 108.939 166.519 109.866 166.089 110.726C165.675 111.586 165.187 112.364 164.625 113.061C164.062 113.758 163.47 114.336 162.849 114.796H159.564C160.245 114.321 160.896 113.765 161.517 113.128C162.154 112.505 162.701 111.815 163.16 111.059C163.633 110.303 164.011 109.495 164.292 108.635C164.573 107.775 164.713 106.878 164.713 105.944V103.676C164.713 102.741 164.573 101.844 164.292 100.985C164.011 100.125 163.633 99.3165 163.16 98.5603C162.701 97.8042 162.154 97.1147 161.517 96.492C160.896 95.8545 160.245 95.2985 159.564 94.824H162.849C163.47 95.2985 164.062 95.8841 164.625 96.581C165.187 97.263 165.675 98.034 166.089 98.8939C166.519 99.7539 166.851 100.688 167.088 101.696C167.34 102.69 167.465 103.727 167.465 104.81Z" fill="#B3D800"/>
<path d="M180.063 114.796L172.939 94.824H175.891L183.015 114.796H180.063Z" fill="#B3D800"/>
<path d="M206.679 114.796L199.554 94.824H202.506L209.631 114.796H206.679Z" fill="#B3D800"/>
<path d="M226.17 114.796L233.295 94.824H236.246L229.122 114.796H226.17Z" fill="#B3D800"/>
<path d="M246.602 114.796L239.478 94.824H242.43L249.554 114.796H246.602Z" fill="#B3D800"/>
<path d="M266.094 114.796L273.218 94.824H276.17L269.046 114.796H266.094Z" fill="#B3D800"/>
<path d="M292.71 114.796L299.834 94.824H302.786L295.661 114.796H292.71Z" fill="#B3D800"/>
<path d="M43.5 143.899V123.927H46.2965V143.899H43.5Z" fill="#B3D800"/>
<path d="M66.1873 145.1V142.408H76.8406V145.1H66.1873Z" fill="#B3D800"/>
<path d="M100.216 143.899L93.0916 123.927H96.0434L103.168 143.899H100.216Z" fill="#B3D800"/>
<path d="M110.039 143.899V123.927H112.836V143.899H110.039Z" fill="#B3D800"/>
<path d="M132.727 145.1V142.408H143.38V145.1H132.727Z" fill="#B3D800"/>
<path d="M166.755 143.899L159.631 123.927H162.583L169.707 143.899H166.755Z" fill="#B3D800"/>
<path d="M193.371 143.899L186.247 123.927H189.198L196.323 143.899H193.371Z" fill="#B3D800"/>
<path d="M215.548 140.829L211.442 125.306H215.148L216.968 133.201L217.878 137.671H218.056L218.988 133.201L220.83 125.306H224.359L220.253 140.829H215.548Z" fill="#B3D800"/>
<path d="M255.471 140.829L251.366 125.306H255.072L256.892 133.201L257.802 137.671H257.979L258.912 133.201L260.754 125.306H264.283L260.177 140.829H255.471Z" fill="#B3D800"/>
<path d="M279.402 143.899L286.526 123.927H289.478L282.353 143.899H279.402Z" fill="#B3D800"/>
<path d="M43.5 173.002V153.03H46.2965V173.002H43.5Z" fill="#B3D800"/>
<path d="M52.8795 174.203V171.511H63.5327V174.203H52.8795Z" fill="#B3D800"/>
<path d="M66.1873 174.203V171.511H76.8406V174.203H66.1873Z" fill="#B3D800"/>
<path d="M79.4952 174.203V171.511H90.1484V174.203H79.4952Z" fill="#B3D800"/>
<path d="M93.0916 173.002L100.216 153.03H103.168L96.0434 173.002H93.0916Z" fill="#B3D800"/>
<path d="M110.039 173.002V153.03H112.836V173.002H110.039Z" fill="#B3D800"/>
<path d="M119.419 174.203V171.511H130.072V174.203H119.419Z" fill="#B3D800"/>
<path d="M132.727 174.203V171.511H143.38V174.203H132.727Z" fill="#B3D800"/>
<path d="M146.035 174.203V171.511H156.688V174.203H146.035Z" fill="#B3D800"/>
<path d="M159.631 173.002L166.755 153.03H169.707L162.583 173.002H159.631Z" fill="#B3D800"/>
<path d="M206.679 173.002L199.554 153.03H202.506L209.631 173.002H206.679Z" fill="#B3D800"/>
<path d="M212.574 174.203V171.511H223.227V174.203H212.574Z" fill="#B3D800"/>
<path d="M226.17 173.002L233.295 153.03H236.246L229.122 173.002H226.17Z" fill="#B3D800"/>
<path d="M246.602 173.002L239.478 153.03H242.43L249.554 173.002H246.602Z" fill="#B3D800"/>
<path d="M252.497 174.203V171.511H263.151V174.203H252.497Z" fill="#B3D800"/>
<path d="M266.094 173.002L273.218 153.03H276.17L269.046 173.002H266.094Z" fill="#B3D800"/>
<path d="M337.826 149.396C336.324 149.396 335.214 148.886 334.496 147.867C333.788 146.849 333.434 145.423 333.434 143.589C333.434 141.755 333.788 140.329 334.496 139.31C335.214 138.291 336.324 137.782 337.826 137.782C339.327 137.782 340.431 138.291 341.139 139.31C341.858 140.329 342.217 141.755 342.217 143.589C342.217 145.423 341.858 146.849 341.139 147.867C340.431 148.886 339.327 149.396 337.826 149.396ZM337.826 147.449C338.512 147.449 338.984 147.197 339.241 146.693C339.509 146.179 339.643 145.465 339.643 144.554V142.608C339.643 141.707 339.509 141.004 339.241 140.5C338.984 139.986 338.512 139.728 337.826 139.728C337.139 139.728 336.662 139.986 336.394 140.5C336.137 141.004 336.008 141.707 336.008 142.608V144.57C336.008 145.471 336.137 146.179 336.394 146.693C336.662 147.197 337.139 147.449 337.826 147.449ZM343.69 149.203V140.903H346.071V142.415H346.167C346.264 142.179 346.382 141.959 346.521 141.755C346.661 141.551 346.827 141.374 347.02 141.224C347.224 141.063 347.454 140.94 347.712 140.854C347.98 140.758 348.28 140.71 348.612 140.71C349.009 140.71 349.374 140.779 349.706 140.919C350.039 141.047 350.323 141.246 350.559 141.514C350.795 141.782 350.977 142.109 351.106 142.495C351.245 142.881 351.315 143.326 351.315 143.83V149.203H348.934V144.152C348.934 143.079 348.468 142.543 347.535 142.543C347.352 142.543 347.17 142.57 346.988 142.624C346.816 142.667 346.661 142.742 346.521 142.849C346.382 142.945 346.269 143.069 346.184 143.219C346.108 143.369 346.071 143.546 346.071 143.75V149.203H343.69ZM357.34 149.396C355.946 149.396 354.89 149.009 354.172 148.237C353.453 147.465 353.094 146.414 353.094 145.085C353.094 144.409 353.185 143.803 353.367 143.267C353.56 142.72 353.828 142.259 354.172 141.884C354.525 141.498 354.949 141.208 355.442 141.015C355.946 140.811 356.509 140.71 357.131 140.71C357.753 140.71 358.311 140.811 358.804 141.015C359.297 141.208 359.716 141.487 360.059 141.852C360.402 142.216 360.665 142.661 360.847 143.187C361.04 143.701 361.136 144.28 361.136 144.924V145.632H355.458V145.776C355.458 146.313 355.625 146.747 355.957 147.079C356.289 147.401 356.777 147.562 357.421 147.562C357.914 147.562 358.338 147.471 358.691 147.288C359.045 147.095 359.351 146.843 359.608 146.532L360.895 147.932C360.573 148.329 360.123 148.672 359.544 148.961C358.965 149.251 358.23 149.396 357.34 149.396ZM357.147 142.415C356.633 142.415 356.22 142.575 355.909 142.897C355.608 143.208 355.458 143.632 355.458 144.168V144.297H358.804V144.168C358.804 143.621 358.654 143.192 358.354 142.881C358.064 142.57 357.662 142.415 357.147 142.415ZM372.528 140.903H374.909V142.415H375.021C375.225 141.921 375.52 141.514 375.906 141.192C376.292 140.87 376.818 140.71 377.482 140.71C377.943 140.71 378.362 140.795 378.737 140.967C379.123 141.139 379.45 141.401 379.718 141.755C379.997 142.109 380.211 142.559 380.362 143.106C380.522 143.653 380.603 144.302 380.603 145.053C380.603 145.803 380.522 146.452 380.362 146.999C380.211 147.546 379.997 147.996 379.718 148.35C379.45 148.704 379.123 148.967 378.737 149.138C378.362 149.31 377.943 149.396 377.482 149.396C376.818 149.396 376.292 149.24 375.906 148.929C375.52 148.607 375.225 148.195 375.021 147.691H374.909V152.42H372.528V140.903ZM376.453 147.546C376.989 147.546 377.402 147.385 377.691 147.063C377.981 146.731 378.126 146.275 378.126 145.696V144.409C378.126 143.83 377.981 143.38 377.691 143.058C377.402 142.726 376.989 142.559 376.453 142.559C376.035 142.559 375.67 142.661 375.359 142.865C375.059 143.069 374.909 143.39 374.909 143.83V146.275C374.909 146.715 375.059 147.036 375.359 147.24C375.67 147.444 376.035 147.546 376.453 147.546ZM382.318 147.353H384.859V139.149H382.318V137.3H387.24V147.353H389.781V149.203H382.318V147.353ZM398.702 149.203C398.209 149.203 397.812 149.079 397.512 148.833C397.212 148.575 397.035 148.211 396.981 147.739H396.901C396.75 148.286 396.45 148.699 396 148.977C395.56 149.256 395.019 149.396 394.375 149.396C393.571 149.396 392.922 149.181 392.429 148.752C391.946 148.312 391.705 147.701 391.705 146.918C391.705 146.05 392.021 145.406 392.654 144.988C393.287 144.57 394.214 144.361 395.437 144.361H396.772V143.943C396.772 143.449 396.654 143.079 396.418 142.833C396.193 142.575 395.807 142.447 395.26 142.447C394.756 142.447 394.348 142.543 394.037 142.736C393.726 142.929 393.458 143.181 393.233 143.492L391.93 142.334C392.209 141.862 392.643 141.476 393.233 141.176C393.834 140.865 394.6 140.71 395.533 140.71C396.67 140.71 397.555 140.972 398.187 141.498C398.831 142.012 399.153 142.795 399.153 143.846V147.481H400.069V149.203H398.702ZM395.276 147.835C395.694 147.835 396.048 147.733 396.338 147.53C396.627 147.326 396.772 147.031 396.772 146.645V145.648H395.501C394.525 145.648 394.037 145.975 394.037 146.629V146.951C394.037 147.24 394.15 147.46 394.375 147.61C394.6 147.76 394.901 147.835 395.276 147.835ZM405.677 149.396C405.023 149.396 404.433 149.299 403.907 149.106C403.393 148.902 402.953 148.613 402.588 148.237C402.235 147.862 401.961 147.406 401.768 146.87C401.575 146.334 401.479 145.728 401.479 145.053C401.479 144.377 401.575 143.771 401.768 143.235C401.961 142.699 402.235 142.243 402.588 141.868C402.953 141.492 403.393 141.208 403.907 141.015C404.433 140.811 405.017 140.71 405.661 140.71C406.572 140.71 407.301 140.897 407.848 141.273C408.406 141.637 408.829 142.125 409.119 142.736L407.285 143.734C407.135 143.412 406.937 143.144 406.69 142.929C406.454 142.715 406.111 142.608 405.661 142.608C405.114 142.608 404.69 142.768 404.39 143.09C404.1 143.401 403.956 143.83 403.956 144.377V145.728C403.956 146.275 404.1 146.709 404.39 147.031C404.69 147.342 405.125 147.497 405.693 147.497C406.154 147.497 406.513 147.39 406.771 147.176C407.039 146.961 407.264 146.683 407.446 146.339L409.248 147.369C408.947 147.98 408.508 148.473 407.929 148.849C407.36 149.213 406.61 149.396 405.677 149.396ZM415.209 149.396C413.815 149.396 412.759 149.009 412.04 148.237C411.322 147.465 410.962 146.414 410.962 145.085C410.962 144.409 411.054 143.803 411.236 143.267C411.429 142.72 411.697 142.259 412.04 141.884C412.394 141.498 412.818 141.208 413.311 141.015C413.815 140.811 414.378 140.71 415 140.71C415.622 140.71 416.179 140.811 416.673 141.015C417.166 141.208 417.584 141.487 417.927 141.852C418.27 142.216 418.533 142.661 418.716 143.187C418.909 143.701 419.005 144.28 419.005 144.924V145.632H413.327V145.776C413.327 146.313 413.493 146.747 413.826 147.079C414.158 147.401 414.646 147.562 415.289 147.562C415.783 147.562 416.206 147.471 416.56 147.288C416.914 147.095 417.22 146.843 417.477 146.532L418.764 147.932C418.442 148.329 417.992 148.672 417.413 148.961C416.834 149.251 416.099 149.396 415.209 149.396ZM415.016 142.415C414.501 142.415 414.088 142.575 413.777 142.897C413.477 143.208 413.327 143.632 413.327 144.168V144.297H416.673V144.168C416.673 143.621 416.523 143.192 416.222 142.881C415.933 142.57 415.531 142.415 415.016 142.415ZM430.59 147.353H433.035V142.752H430.429V140.903H433.035V139.696C433.035 138.988 433.239 138.415 433.646 137.975C434.064 137.525 434.708 137.3 435.576 137.3H438.391V139.149H435.415V140.903H438.391V142.752H435.415V147.353H438.021V149.203H430.59V147.353ZM443.918 149.396C443.275 149.396 442.696 149.299 442.181 149.106C441.666 148.902 441.227 148.613 440.862 148.237C440.508 147.862 440.235 147.406 440.042 146.87C439.849 146.334 439.752 145.728 439.752 145.053C439.752 144.377 439.849 143.771 440.042 143.235C440.235 142.699 440.508 142.243 440.862 141.868C441.227 141.492 441.666 141.208 442.181 141.015C442.696 140.811 443.275 140.71 443.918 140.71C444.562 140.71 445.141 140.811 445.655 141.015C446.17 141.208 446.604 141.492 446.958 141.868C447.323 142.243 447.602 142.699 447.795 143.235C447.988 143.771 448.084 144.377 448.084 145.053C448.084 145.728 447.988 146.334 447.795 146.87C447.602 147.406 447.323 147.862 446.958 148.237C446.604 148.613 446.17 148.902 445.655 149.106C445.141 149.299 444.562 149.396 443.918 149.396ZM443.918 147.626C444.454 147.626 444.872 147.46 445.173 147.128C445.473 146.795 445.623 146.323 445.623 145.712V144.393C445.623 143.782 445.473 143.31 445.173 142.978C444.872 142.645 444.454 142.479 443.918 142.479C443.382 142.479 442.964 142.645 442.663 142.978C442.363 143.31 442.213 143.782 442.213 144.393V145.712C442.213 146.323 442.363 146.795 442.663 147.128C442.964 147.46 443.382 147.626 443.918 147.626ZM449.928 147.353H451.842V142.752H449.928V140.903H454.222V143.251H454.335C454.41 142.951 454.512 142.661 454.641 142.382C454.78 142.093 454.952 141.841 455.155 141.626C455.37 141.401 455.627 141.224 455.927 141.096C456.228 140.967 456.582 140.903 456.989 140.903H457.777V143.09H456.008C455.418 143.09 454.973 143.267 454.673 143.621C454.373 143.964 454.222 144.388 454.222 144.892V147.353H456.957V149.203H449.928V147.353ZM475.86 149.203C475.367 149.203 474.97 149.079 474.67 148.833C474.37 148.575 474.193 148.211 474.139 147.739H474.059C473.909 148.286 473.608 148.699 473.158 148.977C472.718 149.256 472.177 149.396 471.533 149.396C470.729 149.396 470.08 149.181 469.587 148.752C469.105 148.312 468.863 147.701 468.863 146.918C468.863 146.05 469.18 145.406 469.812 144.988C470.445 144.57 471.373 144.361 472.595 144.361H473.93V143.943C473.93 143.449 473.812 143.079 473.576 142.833C473.351 142.575 472.965 142.447 472.418 142.447C471.914 142.447 471.507 142.543 471.196 142.736C470.885 142.929 470.617 143.181 470.391 143.492L469.089 142.334C469.367 141.862 469.802 141.476 470.391 141.176C470.992 140.865 471.759 140.71 472.692 140.71C473.828 140.71 474.713 140.972 475.346 141.498C475.989 142.012 476.311 142.795 476.311 143.846V147.481H477.228V149.203H475.86ZM472.434 147.835C472.852 147.835 473.206 147.733 473.496 147.53C473.785 147.326 473.93 147.031 473.93 146.645V145.648H472.659C471.684 145.648 471.196 145.975 471.196 146.629V146.951C471.196 147.24 471.308 147.46 471.533 147.61C471.759 147.76 472.059 147.835 472.434 147.835ZM478.765 147.353H481.307V139.149H478.765V137.3H483.688V147.353H486.229V149.203H478.765V147.353ZM488.41 147.353H490.952V139.149H488.41V137.3H493.332V147.353H495.874V149.203H488.41V147.353ZM506.719 140.903H508.697L509.292 147.626H509.453L510.434 140.903H512.525L513.49 147.626H513.651L514.263 140.903H516.145L515.163 149.203H512.332L511.512 143.476H511.351L510.531 149.203H507.7L506.719 140.903ZM521.076 149.396C520.433 149.396 519.854 149.299 519.339 149.106C518.824 148.902 518.385 148.613 518.02 148.237C517.666 147.862 517.393 147.406 517.2 146.87C517.007 146.334 516.91 145.728 516.91 145.053C516.91 144.377 517.007 143.771 517.2 143.235C517.393 142.699 517.666 142.243 518.02 141.868C518.385 141.492 518.824 141.208 519.339 141.015C519.854 140.811 520.433 140.71 521.076 140.71C521.72 140.71 522.299 140.811 522.814 141.015C523.328 141.208 523.763 141.492 524.116 141.868C524.481 142.243 524.76 142.699 524.953 143.235C525.146 143.771 525.242 144.377 525.242 145.053C525.242 145.728 525.146 146.334 524.953 146.87C524.76 147.406 524.481 147.862 524.116 148.237C523.763 148.613 523.328 148.902 522.814 149.106C522.299 149.299 521.72 149.396 521.076 149.396ZM521.076 147.626C521.613 147.626 522.031 147.46 522.331 147.128C522.631 146.795 522.781 146.323 522.781 145.712V144.393C522.781 143.782 522.631 143.31 522.331 142.978C522.031 142.645 521.613 142.479 521.076 142.479C520.54 142.479 520.122 142.645 519.822 142.978C519.521 143.31 519.371 143.782 519.371 144.393V145.712C519.371 146.323 519.521 146.795 519.822 147.128C520.122 147.46 520.54 147.626 521.076 147.626ZM527.086 147.353H529V142.752H527.086V140.903H531.381V143.251H531.493C531.568 142.951 531.67 142.661 531.799 142.382C531.938 142.093 532.11 141.841 532.314 141.626C532.528 141.401 532.785 141.224 533.086 141.096C533.386 140.967 533.74 140.903 534.147 140.903H534.935V143.09H533.166C532.576 143.09 532.131 143.267 531.831 143.621C531.531 143.964 531.381 144.388 531.381 144.892V147.353H534.115V149.203H527.086V147.353ZM536.586 137.3H538.967V144.055H539.079L540.189 142.752L541.926 140.903H544.661L541.444 144.184L544.998 149.203H542.167L539.755 145.535L538.967 146.323V149.203H536.586V137.3ZM549.914 149.396C548.992 149.396 548.188 149.256 547.501 148.977C546.826 148.699 546.316 148.318 545.973 147.835L547.308 146.597C547.63 146.951 548.005 147.229 548.434 147.433C548.874 147.626 549.373 147.723 549.93 147.723C550.402 147.723 550.772 147.653 551.04 147.514C551.308 147.363 551.442 147.138 551.442 146.838C551.442 146.602 551.351 146.441 551.169 146.355C550.987 146.259 550.735 146.184 550.413 146.13L549.078 145.921C548.702 145.868 548.354 145.787 548.032 145.68C547.711 145.562 547.432 145.406 547.196 145.213C546.96 145.02 546.772 144.784 546.633 144.506C546.493 144.227 546.424 143.889 546.424 143.492C546.424 142.624 546.756 141.943 547.421 141.449C548.086 140.956 549.019 140.71 550.22 140.71C551.035 140.71 551.726 140.822 552.295 141.047C552.874 141.262 553.335 141.573 553.678 141.98L552.488 143.331C552.241 143.063 551.925 142.838 551.539 142.656C551.153 142.474 550.686 142.382 550.139 142.382C549.217 142.382 548.756 142.661 548.756 143.219C548.756 143.465 548.847 143.637 549.03 143.734C549.212 143.819 549.464 143.889 549.786 143.943L551.104 144.152C551.48 144.205 551.828 144.291 552.15 144.409C552.472 144.516 552.751 144.667 552.986 144.86C553.233 145.053 553.426 145.288 553.566 145.567C553.705 145.846 553.775 146.184 553.775 146.581C553.775 147.449 553.437 148.136 552.761 148.64C552.096 149.144 551.147 149.396 549.914 149.396ZM337.826 170.396C337.182 170.396 336.603 170.299 336.088 170.106C335.574 169.902 335.134 169.613 334.769 169.237C334.415 168.862 334.142 168.406 333.949 167.87C333.756 167.334 333.659 166.728 333.659 166.053C333.659 165.377 333.756 164.771 333.949 164.235C334.142 163.699 334.415 163.243 334.769 162.868C335.134 162.492 335.574 162.208 336.088 162.015C336.603 161.811 337.182 161.71 337.826 161.71C338.469 161.71 339.048 161.811 339.563 162.015C340.077 162.208 340.512 162.492 340.866 162.868C341.23 163.243 341.509 163.699 341.702 164.235C341.895 164.771 341.992 165.377 341.992 166.053C341.992 166.728 341.895 167.334 341.702 167.87C341.509 168.406 341.23 168.862 340.866 169.237C340.512 169.613 340.077 169.902 339.563 170.106C339.048 170.299 338.469 170.396 337.826 170.396ZM337.826 168.626C338.362 168.626 338.78 168.46 339.08 168.128C339.38 167.795 339.531 167.323 339.531 166.712V165.393C339.531 164.782 339.38 164.31 339.08 163.978C338.78 163.645 338.362 163.479 337.826 163.479C337.289 163.479 336.871 163.645 336.571 163.978C336.271 164.31 336.121 164.782 336.121 165.393V166.712C336.121 167.323 336.271 167.795 336.571 168.128C336.871 168.46 337.289 168.626 337.826 168.626ZM343.787 168.353H346.232V163.752H343.626V161.903H346.232V160.696C346.232 159.988 346.436 159.415 346.843 158.975C347.261 158.525 347.905 158.3 348.773 158.3H351.588V160.149H348.612V161.903H351.588V163.752H348.612V168.353H351.218V170.203H343.787V168.353ZM363.173 158.975H367.114C368.218 158.975 369.06 159.243 369.639 159.779C370.229 160.316 370.524 161.045 370.524 161.967C370.524 162.61 370.363 163.125 370.041 163.511C369.73 163.886 369.28 164.16 368.69 164.331V164.428C369.387 164.6 369.923 164.9 370.299 165.329C370.685 165.758 370.878 166.353 370.878 167.114C370.878 168.058 370.577 168.808 369.977 169.366C369.387 169.924 368.556 170.203 367.484 170.203H363.173V158.975ZM366.744 168.514C367.323 168.514 367.746 168.417 368.015 168.224C368.283 168.031 368.417 167.677 368.417 167.162V166.696C368.417 166.181 368.283 165.827 368.015 165.634C367.746 165.441 367.323 165.345 366.744 165.345H365.521V168.514H366.744ZM366.438 163.736C367.007 163.736 367.419 163.645 367.677 163.463C367.934 163.27 368.063 162.927 368.063 162.433V161.951C368.063 161.458 367.934 161.12 367.677 160.937C367.419 160.755 367.007 160.664 366.438 160.664H365.521V163.736H366.438ZM372.818 158.975H376.759C377.863 158.975 378.705 159.243 379.284 159.779C379.874 160.316 380.169 161.045 380.169 161.967C380.169 162.61 380.008 163.125 379.686 163.511C379.375 163.886 378.925 164.16 378.335 164.331V164.428C379.032 164.6 379.568 164.9 379.943 165.329C380.329 165.758 380.522 166.353 380.522 167.114C380.522 168.058 380.222 168.808 379.622 169.366C379.032 169.924 378.201 170.203 377.128 170.203H372.818V158.975ZM376.389 168.514C376.968 168.514 377.391 168.417 377.659 168.224C377.927 168.031 378.061 167.677 378.061 167.162V166.696C378.061 166.181 377.927 165.827 377.659 165.634C377.391 165.441 376.968 165.345 376.389 165.345H375.166V168.514H376.389ZM376.083 163.736C376.651 163.736 377.064 163.645 377.322 163.463C377.579 163.27 377.708 162.927 377.708 162.433V161.951C377.708 161.458 377.579 161.12 377.322 160.937C377.064 160.755 376.651 160.664 376.083 160.664H375.166V163.736H376.083ZM382.092 170.203L381.401 158.975H383.476L383.798 165.699L383.894 167.822H384.039L385.004 161.42H387.175L388.14 167.822H388.285L388.382 165.763L388.703 158.975H390.698L390.006 170.203H386.95L386.13 164.01H385.969L385.149 170.203H382.092ZM401.72 170.203V168.417H404.133V160.761H401.72V158.975H408.958V160.761H406.545V168.417H408.958V170.203H401.72ZM416.19 160.954V170.203H413.777V160.954H410.544V158.975H419.423V160.954H416.19ZM434.177 170.396C433.255 170.396 432.45 170.256 431.764 169.977C431.088 169.699 430.579 169.318 430.236 168.835L431.571 167.597C431.893 167.951 432.268 168.229 432.697 168.433C433.137 168.626 433.635 168.723 434.193 168.723C434.665 168.723 435.035 168.653 435.303 168.514C435.571 168.363 435.705 168.138 435.705 167.838C435.705 167.602 435.614 167.441 435.431 167.355C435.249 167.259 434.997 167.184 434.675 167.13L433.34 166.921C432.965 166.868 432.617 166.787 432.295 166.68C431.973 166.562 431.694 166.406 431.458 166.213C431.223 166.02 431.035 165.784 430.895 165.506C430.756 165.227 430.686 164.889 430.686 164.492C430.686 163.624 431.019 162.943 431.684 162.449C432.348 161.956 433.281 161.71 434.482 161.71C435.297 161.71 435.989 161.822 436.557 162.047C437.136 162.262 437.598 162.573 437.941 162.98L436.75 164.331C436.504 164.063 436.187 163.838 435.801 163.656C435.415 163.474 434.949 163.382 434.402 163.382C433.48 163.382 433.019 163.661 433.019 164.219C433.019 164.465 433.11 164.637 433.292 164.734C433.474 164.819 433.726 164.889 434.048 164.943L435.367 165.152C435.742 165.205 436.091 165.291 436.413 165.409C436.734 165.516 437.013 165.667 437.249 165.86C437.496 166.053 437.689 166.288 437.828 166.567C437.968 166.846 438.037 167.184 438.037 167.581C438.037 168.449 437.699 169.136 437.024 169.64C436.359 170.144 435.41 170.396 434.177 170.396ZM444.562 170.203C443.704 170.203 443.066 169.977 442.647 169.527C442.229 169.077 442.02 168.503 442.02 167.806V163.752H439.768V161.903H441.232C441.586 161.903 441.838 161.833 441.988 161.693C442.138 161.554 442.213 161.297 442.213 160.921V158.975H444.401V161.903H447.634V163.752H444.401V168.353H447.634V170.203H444.562ZM454.962 168.691H454.866C454.683 169.162 454.394 169.564 453.997 169.897C453.611 170.229 453.086 170.396 452.421 170.396C452.024 170.396 451.659 170.331 451.327 170.203C450.995 170.063 450.71 169.859 450.475 169.591C450.239 169.323 450.051 168.996 449.912 168.61C449.783 168.224 449.719 167.779 449.719 167.275V161.903H452.099V166.953C452.099 168.026 452.566 168.562 453.499 168.562C453.681 168.562 453.858 168.54 454.029 168.497C454.212 168.444 454.367 168.369 454.496 168.272C454.635 168.165 454.748 168.036 454.834 167.886C454.919 167.736 454.962 167.559 454.962 167.355V161.903H457.343V170.203H454.962V168.691ZM464.704 168.691H464.591C464.377 169.195 464.076 169.607 463.69 169.929C463.315 170.24 462.795 170.396 462.13 170.396C461.669 170.396 461.245 170.31 460.859 170.138C460.484 169.967 460.157 169.704 459.878 169.35C459.61 168.996 459.396 168.546 459.235 167.999C459.085 167.452 459.009 166.803 459.009 166.053C459.009 165.302 459.085 164.653 459.235 164.106C459.396 163.559 459.61 163.109 459.878 162.755C460.157 162.401 460.484 162.139 460.859 161.967C461.245 161.795 461.669 161.71 462.13 161.71C462.462 161.71 462.757 161.752 463.015 161.838C463.272 161.924 463.497 162.042 463.69 162.192C463.894 162.342 464.066 162.525 464.205 162.739C464.355 162.943 464.484 163.168 464.591 163.415H464.704V158.3H467.084V170.203H464.704V168.691ZM463.159 168.546C463.578 168.546 463.937 168.444 464.237 168.24C464.548 168.036 464.704 167.715 464.704 167.275V164.83C464.704 164.39 464.548 164.069 464.237 163.865C463.937 163.661 463.578 163.559 463.159 163.559C462.623 163.559 462.21 163.726 461.921 164.058C461.631 164.38 461.487 164.83 461.487 165.409V166.696C461.487 167.275 461.631 167.731 461.921 168.063C462.21 168.385 462.623 168.546 463.159 168.546ZM473.078 170.396C471.684 170.396 470.627 170.009 469.909 169.237C469.19 168.465 468.831 167.414 468.831 166.085C468.831 165.409 468.922 164.803 469.105 164.267C469.298 163.72 469.566 163.259 469.909 162.884C470.263 162.498 470.686 162.208 471.18 162.015C471.684 161.811 472.247 161.71 472.869 161.71C473.49 161.71 474.048 161.811 474.541 162.015C475.035 162.208 475.453 162.487 475.796 162.852C476.139 163.216 476.402 163.661 476.584 164.187C476.777 164.701 476.874 165.28 476.874 165.924V166.632H471.196V166.776C471.196 167.313 471.362 167.747 471.694 168.079C472.027 168.401 472.515 168.562 473.158 168.562C473.651 168.562 474.075 168.471 474.429 168.288C474.783 168.095 475.088 167.843 475.346 167.532L476.632 168.932C476.311 169.329 475.86 169.672 475.281 169.961C474.702 170.251 473.968 170.396 473.078 170.396ZM472.885 163.415C472.37 163.415 471.957 163.575 471.646 163.897C471.346 164.208 471.196 164.632 471.196 165.168V165.297H474.541V165.168C474.541 164.621 474.391 164.192 474.091 163.881C473.801 163.57 473.399 163.415 472.885 163.415ZM478.717 170.203V161.903H481.098V163.415H481.194C481.291 163.179 481.409 162.959 481.548 162.755C481.688 162.551 481.854 162.374 482.047 162.224C482.251 162.063 482.481 161.94 482.739 161.854C483.007 161.758 483.307 161.71 483.639 161.71C484.036 161.71 484.401 161.779 484.733 161.919C485.065 162.047 485.35 162.246 485.586 162.514C485.821 162.782 486.004 163.109 486.132 163.495C486.272 163.881 486.342 164.326 486.342 164.83V170.203H483.961V165.152C483.961 164.079 483.495 163.543 482.562 163.543C482.379 163.543 482.197 163.57 482.015 163.624C481.843 163.667 481.688 163.742 481.548 163.849C481.409 163.945 481.296 164.069 481.21 164.219C481.135 164.369 481.098 164.546 481.098 164.75V170.203H478.717ZM492.785 170.203C491.928 170.203 491.29 169.977 490.871 169.527C490.453 169.077 490.244 168.503 490.244 167.806V163.752H487.992V161.903H489.456C489.81 161.903 490.062 161.833 490.212 161.693C490.362 161.554 490.437 161.297 490.437 160.921V158.975H492.625V161.903H495.858V163.752H492.625V168.353H495.858V170.203H492.785ZM501.69 170.396C500.768 170.396 499.964 170.256 499.278 169.977C498.602 169.699 498.093 169.318 497.749 168.835L499.084 167.597C499.406 167.951 499.782 168.229 500.21 168.433C500.65 168.626 501.149 168.723 501.706 168.723C502.178 168.723 502.548 168.653 502.816 168.514C503.084 168.363 503.218 168.138 503.218 167.838C503.218 167.602 503.127 167.441 502.945 167.355C502.763 167.259 502.511 167.184 502.189 167.13L500.854 166.921C500.479 166.868 500.13 166.787 499.808 166.68C499.487 166.562 499.208 166.406 498.972 166.213C498.736 166.02 498.548 165.784 498.409 165.506C498.27 165.227 498.2 164.889 498.2 164.492C498.2 163.624 498.532 162.943 499.197 162.449C499.862 161.956 500.795 161.71 501.996 161.71C502.811 161.71 503.503 161.822 504.071 162.047C504.65 162.262 505.111 162.573 505.454 162.98L504.264 164.331C504.017 164.063 503.701 163.838 503.315 163.656C502.929 163.474 502.462 163.382 501.915 163.382C500.993 163.382 500.532 163.661 500.532 164.219C500.532 164.465 500.623 164.637 500.806 164.734C500.988 164.819 501.24 164.889 501.562 164.943L502.881 165.152C503.256 165.205 503.604 165.291 503.926 165.409C504.248 165.516 504.527 165.667 504.763 165.86C505.009 166.053 505.202 166.288 505.342 166.567C505.481 166.846 505.551 167.184 505.551 167.581C505.551 168.449 505.213 169.136 504.537 169.64C503.872 170.144 502.923 170.396 501.69 170.396ZM511.432 170.396C510.831 170.396 510.397 170.267 510.129 170.009C509.871 169.741 509.743 169.425 509.743 169.06V168.497C509.743 168.133 509.871 167.822 510.129 167.565C510.397 167.296 510.831 167.162 511.432 167.162C512.032 167.162 512.461 167.296 512.718 167.565C512.986 167.822 513.121 168.133 513.121 168.497V169.06C513.121 169.425 512.986 169.741 512.718 170.009C512.461 170.267 512.032 170.396 511.432 170.396Z" fill="#B3D800"/>
<path d="M355.501 108.219H345.005V125.493H336V84.2025H345.005V100.943H355.501V84.2025H364.506V125.493H355.501V108.219Z" fill="#B3D800"/>
<path d="M386.846 126.203C381.678 126.203 377.762 124.783 375.098 121.943C372.434 119.104 371.102 115.239 371.102 110.349C371.102 107.864 371.44 105.636 372.116 103.664C372.832 101.653 373.826 99.9574 375.098 98.5772C376.41 97.1574 377.98 96.0927 379.809 95.3828C381.678 94.6335 383.765 94.2589 386.071 94.2589C388.377 94.2589 390.444 94.6335 392.273 95.3828C394.102 96.0927 395.653 97.118 396.925 98.4589C398.197 99.7997 399.171 101.436 399.847 103.369C400.563 105.262 400.921 107.391 400.921 109.757V112.36H379.869V112.893C379.869 114.864 380.485 116.462 381.718 117.684C382.95 118.867 384.759 119.459 387.145 119.459C388.973 119.459 390.544 119.124 391.856 118.453C393.168 117.743 394.301 116.817 395.255 115.673L400.026 120.819C398.833 122.279 397.163 123.541 395.017 124.605C392.87 125.67 390.146 126.203 386.846 126.203ZM386.131 100.529C384.222 100.529 382.692 101.121 381.539 102.304C380.426 103.448 379.869 105.005 379.869 106.977V107.45H392.273V106.977C392.273 104.966 391.717 103.388 390.603 102.245C389.53 101.101 388.039 100.529 386.131 100.529Z" fill="#B3D800"/>
<path d="M408.292 118.69H415.389V101.772H408.292V94.9687H424.215V103.605H424.632C424.911 102.501 425.288 101.436 425.766 100.411C426.282 99.3462 426.918 98.4194 427.674 97.6307C428.469 96.8025 429.423 96.1518 430.536 95.6786C431.65 95.2053 432.962 94.9687 434.472 94.9687H437.395V103.014H430.835C428.648 103.014 426.998 103.664 425.885 104.966C424.772 106.228 424.215 107.786 424.215 109.639V118.69H434.353V125.493H408.292V118.69Z" fill="#B3D800"/>
<path d="M457.528 126.203C455.143 126.203 452.996 125.848 451.088 125.138C449.179 124.388 447.549 123.324 446.197 121.943C444.885 120.563 443.872 118.887 443.156 116.915C442.44 114.943 442.083 112.715 442.083 110.231C442.083 107.746 442.44 105.518 443.156 103.546C443.872 101.574 444.885 99.8983 446.197 98.518C447.549 97.1377 449.179 96.0927 451.088 95.3828C452.996 94.6335 455.143 94.2589 457.528 94.2589C459.914 94.2589 462.061 94.6335 463.969 95.3828C465.877 96.0927 467.488 97.1377 468.8 98.518C470.151 99.8983 471.185 101.574 471.901 103.546C472.616 105.518 472.974 107.746 472.974 110.231C472.974 112.715 472.616 114.943 471.901 116.915C471.185 118.887 470.151 120.563 468.8 121.943C467.488 123.324 465.877 124.388 463.969 125.138C462.061 125.848 459.914 126.203 457.528 126.203ZM457.528 119.695C459.516 119.695 461.067 119.084 462.18 117.862C463.293 116.639 463.85 114.904 463.85 112.656V107.805C463.85 105.557 463.293 103.822 462.18 102.6C461.067 101.377 459.516 100.766 457.528 100.766C455.54 100.766 453.99 101.377 452.877 102.6C451.763 103.822 451.207 105.557 451.207 107.805V112.656C451.207 114.904 451.763 116.639 452.877 117.862C453.99 119.084 455.54 119.695 457.528 119.695Z" fill="#B3D800"/>
<path d="M494.122 126.203C488.953 126.203 485.037 124.783 482.373 121.943C479.71 119.104 478.378 115.239 478.378 110.349C478.378 107.864 478.716 105.636 479.391 103.664C480.107 101.653 481.101 99.9574 482.373 98.5772C483.685 97.1574 485.256 96.0927 487.085 95.3828C488.953 94.6335 491.04 94.2589 493.346 94.2589C495.652 94.2589 497.72 94.6335 499.549 95.3828C501.377 96.0927 502.928 97.118 504.2 98.4589C505.472 99.7997 506.446 101.436 507.122 103.369C507.838 105.262 508.196 107.391 508.196 109.757V112.36H487.144V112.893C487.144 114.864 487.76 116.462 488.993 117.684C490.225 118.867 492.034 119.459 494.42 119.459C496.249 119.459 497.819 119.124 499.131 118.453C500.443 117.743 501.576 116.817 502.53 115.673L507.301 120.819C506.108 122.279 504.439 123.541 502.292 124.605C500.145 125.67 497.421 126.203 494.122 126.203ZM493.406 100.529C491.498 100.529 489.967 101.121 488.814 102.304C487.701 103.448 487.144 105.005 487.144 106.977V107.45H499.549V106.977C499.549 104.966 498.992 103.388 497.879 102.245C496.805 101.101 495.314 100.529 493.406 100.529Z" fill="#B3D800"/>
<path d="M528.687 126.203C525.268 126.203 522.286 125.69 519.742 124.664C517.237 123.639 515.349 122.239 514.076 120.464L519.026 115.91C520.219 117.211 521.61 118.236 523.201 118.986C524.831 119.695 526.68 120.05 528.747 120.05C530.496 120.05 531.868 119.794 532.862 119.281C533.856 118.729 534.353 117.901 534.353 116.797C534.353 115.929 534.015 115.338 533.339 115.022C532.663 114.667 531.729 114.391 530.536 114.194L525.586 113.425C524.195 113.228 522.903 112.932 521.71 112.538C520.517 112.104 519.483 111.532 518.609 110.822C517.734 110.112 517.038 109.245 516.522 108.219C516.005 107.194 515.746 105.952 515.746 104.493C515.746 101.298 516.979 98.7941 519.444 96.98C521.909 95.1659 525.368 94.2589 529.82 94.2589C532.842 94.2589 535.406 94.6729 537.513 95.5011C539.66 96.2898 541.37 97.4335 542.642 98.9321L538.229 103.901C537.315 102.915 536.142 102.087 534.711 101.417C533.279 100.746 531.55 100.411 529.522 100.411C526.103 100.411 524.394 101.436 524.394 103.487C524.394 104.394 524.731 105.025 525.407 105.38C526.083 105.695 527.017 105.952 528.21 106.149L533.1 106.918C534.492 107.115 535.784 107.431 536.977 107.864C538.169 108.259 539.203 108.811 540.078 109.521C540.992 110.231 541.708 111.098 542.225 112.124C542.742 113.149 543 114.391 543 115.85C543 119.045 541.748 121.569 539.243 123.422C536.778 125.276 533.259 126.203 528.687 126.203Z" fill="#B3D800"/>
</svg>
