<svg width="400" height="172" viewBox="0 0 400 172" fill="none" xmlns="http://www.w3.org/2000/svg">
<path d="M48.253 57.794V56H55.3551V57.794H48.253Z" fill="#B3D800"/>
<path d="M57.1249 57.794V56H64.227V57.794H57.1249Z" fill="#B3D800"/>
<path d="M65.9968 57.794V56H73.099V57.794H65.9968Z" fill="#B3D800"/>
<path d="M92.6125 57.794V56H99.7147V57.794H92.6125Z" fill="#B3D800"/>
<path d="M101.484 57.794V56H108.587V57.794H101.484Z" fill="#B3D800"/>
<path d="M110.356 57.794V56H117.458V57.794H110.356Z" fill="#B3D800"/>
<path d="M136.972 57.794V56H144.074V57.794H136.972Z" fill="#B3D800"/>
<path d="M199.075 57.794V56H206.178V57.794H199.075Z" fill="#B3D800"/>
<path d="M42 76.3954V63.081H43.8643V76.3954H42Z" fill="#B3D800"/>
<path d="M57.1249 77.196V75.402H64.227V77.196H57.1249Z" fill="#B3D800"/>
<path d="M80.2841 69.7382C80.2841 70.4598 80.2003 71.1566 80.0326 71.8288C79.8747 72.491 79.6528 73.1088 79.3667 73.6821C79.0905 74.2554 78.765 74.7743 78.3902 75.2389C78.0154 75.7035 77.6208 76.089 77.2065 76.3954H75.0167C75.4704 76.0791 75.9044 75.7084 76.3187 75.2834C76.7429 74.8682 77.1079 74.4086 77.4137 73.9045C77.7293 73.4004 77.9808 72.8617 78.1683 72.2884C78.3557 71.7151 78.4494 71.1171 78.4494 70.4944V68.982C78.4494 68.3593 78.3557 67.7613 78.1683 67.188C77.9808 66.6147 77.7293 66.076 77.4137 65.5719C77.1079 65.0678 76.7429 64.6082 76.3187 64.193C75.9044 63.768 75.4704 63.3973 75.0167 63.081H77.2065C77.6208 63.3973 78.0154 63.7877 78.3902 64.2523C78.765 64.707 79.0905 65.221 79.3667 65.7943C79.6528 66.3676 79.8747 66.9903 80.0326 67.6625C80.2003 68.3247 80.2841 69.0166 80.2841 69.7382Z" fill="#B3D800"/>
<path d="M86.3595 76.3954V63.081H88.2239V76.3954H86.3595Z" fill="#B3D800"/>
<path d="M101.484 77.196V75.402H108.587V77.196H101.484Z" fill="#B3D800"/>
<path d="M124.644 69.7382C124.644 70.4598 124.56 71.1566 124.392 71.8288C124.234 72.491 124.012 73.1088 123.726 73.6821C123.45 74.2554 123.125 74.7743 122.75 75.2389C122.375 75.7035 121.98 76.089 121.566 76.3954H119.376C119.83 76.0791 120.264 75.7084 120.678 75.2834C121.102 74.8682 121.467 74.4086 121.773 73.9045C122.089 73.4004 122.34 72.8617 122.528 72.2884C122.715 71.7151 122.809 71.1171 122.809 70.4944V68.982C122.809 68.3593 122.715 67.7613 122.528 67.188C122.34 66.6147 122.089 66.076 121.773 65.5719C121.467 65.0678 121.102 64.6082 120.678 64.193C120.264 63.768 119.83 63.3973 119.376 63.081H121.566C121.98 63.3973 122.375 63.7877 122.75 64.2523C123.125 64.707 123.45 65.221 123.726 65.7943C124.012 66.3676 124.234 66.9903 124.392 67.6625C124.56 68.3247 124.644 69.0166 124.644 69.7382Z" fill="#B3D800"/>
<path d="M133.042 76.3954L128.293 63.081H130.26L135.01 76.3954H133.042Z" fill="#B3D800"/>
<path d="M150.786 76.3954L146.036 63.081H148.004L152.754 76.3954H150.786Z" fill="#B3D800"/>
<path d="M163.78 76.3954L168.53 63.081H170.498L165.748 76.3954H163.78Z" fill="#B3D800"/>
<path d="M177.402 76.3954L172.652 63.081H174.62L179.37 76.3954H177.402Z" fill="#B3D800"/>
<path d="M190.396 76.3954L195.145 63.081H197.113L192.364 76.3954H190.396Z" fill="#B3D800"/>
<path d="M208.14 76.3954L212.889 63.081H214.857L210.108 76.3954H208.14Z" fill="#B3D800"/>
<path d="M42 95.7974V82.483H43.8643V95.7974H42Z" fill="#B3D800"/>
<path d="M57.1249 96.598V94.804H64.227V96.598H57.1249Z" fill="#B3D800"/>
<path d="M79.8106 95.7974L75.0611 82.483H77.0289L81.7785 95.7974H79.8106Z" fill="#B3D800"/>
<path d="M86.3595 95.7974V82.483H88.2239V95.7974H86.3595Z" fill="#B3D800"/>
<path d="M101.484 96.598V94.804H108.587V96.598H101.484Z" fill="#B3D800"/>
<path d="M124.17 95.7974L119.421 82.483H121.388L126.138 95.7974H124.17Z" fill="#B3D800"/>
<path d="M141.914 95.7974L137.164 82.483H139.132L143.882 95.7974H141.914Z" fill="#B3D800"/>
<path d="M156.699 93.7513L153.961 83.4022H156.432L157.646 88.6657L158.252 91.6459H158.371L158.992 88.6657L160.22 83.4022H162.573L159.835 93.7513H156.699Z" fill="#B3D800"/>
<path d="M183.314 93.7513L180.577 83.4022H183.048L184.261 88.6657L184.868 91.6459H184.986L185.608 88.6657L186.836 83.4022H189.188L186.451 93.7513H183.314Z" fill="#B3D800"/>
<path d="M199.268 95.7974L204.017 82.483H205.985L201.236 95.7974H199.268Z" fill="#B3D800"/>
<path d="M42 115.199V101.885H43.8643V115.199H42Z" fill="#B3D800"/>
<path d="M48.253 116V114.206H55.3551V116H48.253Z" fill="#B3D800"/>
<path d="M57.1249 116V114.206H64.227V116H57.1249Z" fill="#B3D800"/>
<path d="M65.9968 116V114.206H73.099V116H65.9968Z" fill="#B3D800"/>
<path d="M75.0611 115.199L79.8106 101.885H81.7785L77.0289 115.199H75.0611Z" fill="#B3D800"/>
<path d="M86.3595 115.199V101.885H88.2239V115.199H86.3595Z" fill="#B3D800"/>
<path d="M92.6125 116V114.206H99.7147V116H92.6125Z" fill="#B3D800"/>
<path d="M101.484 116V114.206H108.587V116H101.484Z" fill="#B3D800"/>
<path d="M110.356 116V114.206H117.458V116H110.356Z" fill="#B3D800"/>
<path d="M119.421 115.199L124.17 101.885H126.138L121.388 115.199H119.421Z" fill="#B3D800"/>
<path d="M150.786 115.199L146.036 101.885H148.004L152.754 115.199H150.786Z" fill="#B3D800"/>
<path d="M154.716 116V114.206H161.818V116H154.716Z" fill="#B3D800"/>
<path d="M163.78 115.199L168.53 101.885H170.498L165.748 115.199H163.78Z" fill="#B3D800"/>
<path d="M177.402 115.199L172.652 101.885H174.62L179.37 115.199H177.402Z" fill="#B3D800"/>
<path d="M181.332 116V114.206H188.434V116H181.332Z" fill="#B3D800"/>
<path d="M190.396 115.199L195.145 101.885H197.113L192.364 115.199H190.396Z" fill="#B3D800"/>
<path d="M238.217 99.1287C237.216 99.1287 236.476 98.7891 235.997 98.11C235.525 97.4308 235.29 96.48 235.29 95.2575C235.29 94.0351 235.525 93.0843 235.997 92.4051C236.476 91.726 237.216 91.3864 238.217 91.3864C239.218 91.3864 239.954 91.726 240.426 92.4051C240.905 93.0843 241.145 94.0351 241.145 95.2575C241.145 96.48 240.905 97.4308 240.426 98.11C239.954 98.7891 239.218 99.1287 238.217 99.1287ZM238.217 97.8311C238.675 97.8311 238.989 97.6631 239.161 97.3271C239.339 96.984 239.429 96.5086 239.429 95.9009V94.6034C239.429 94.0029 239.339 93.5346 239.161 93.1986C238.989 92.8555 238.675 92.6839 238.217 92.6839C237.759 92.6839 237.441 92.8555 237.263 93.1986C237.091 93.5346 237.005 94.0029 237.005 94.6034V95.9117C237.005 96.5122 237.091 96.984 237.263 97.3271C237.441 97.6631 237.759 97.8311 238.217 97.8311ZM242.127 99V93.4667H243.714V94.4747H243.778C243.843 94.3174 243.921 94.1709 244.014 94.0351C244.107 93.8992 244.218 93.7813 244.347 93.6812C244.482 93.574 244.636 93.4917 244.808 93.4346C244.986 93.3702 245.187 93.338 245.408 93.338C245.673 93.338 245.916 93.3845 246.137 93.4774C246.359 93.5632 246.548 93.6955 246.706 93.8742C246.863 94.0529 246.985 94.271 247.07 94.5283C247.163 94.7857 247.21 95.0824 247.21 95.4184V99H245.623V95.6329C245.623 94.918 245.312 94.5605 244.69 94.5605C244.568 94.5605 244.447 94.5784 244.325 94.6141C244.211 94.6427 244.107 94.6928 244.014 94.7643C243.921 94.8286 243.846 94.9108 243.789 95.0109C243.739 95.111 243.714 95.2289 243.714 95.3648V99H242.127ZM251.227 99.1287C250.297 99.1287 249.593 98.8713 249.114 98.3566C248.635 97.8419 248.396 97.1413 248.396 96.2548C248.396 95.8044 248.457 95.4005 248.578 95.0431C248.707 94.6785 248.886 94.3711 249.114 94.1209C249.35 93.8635 249.633 93.6705 249.961 93.5418C250.297 93.406 250.673 93.338 251.087 93.338C251.502 93.338 251.874 93.406 252.203 93.5418C252.532 93.6705 252.81 93.8563 253.039 94.0994C253.268 94.3425 253.443 94.6391 253.565 94.9894C253.693 95.3326 253.758 95.7186 253.758 96.1476V96.6194H249.972V96.7159C249.972 97.0734 250.083 97.3629 250.305 97.5845C250.526 97.799 250.852 97.9062 251.28 97.9062C251.609 97.9062 251.892 97.8454 252.128 97.7239C252.364 97.5952 252.567 97.4272 252.739 97.2199L253.597 98.1529C253.382 98.4174 253.082 98.6461 252.696 98.8391C252.31 99.0322 251.82 99.1287 251.227 99.1287ZM251.098 94.4747C250.755 94.4747 250.48 94.582 250.272 94.7964C250.072 95.0037 249.972 95.2861 249.972 95.6436V95.7294H252.203V95.6436C252.203 95.279 252.103 94.993 251.902 94.7857C251.709 94.5784 251.441 94.4747 251.098 94.4747ZM261.352 93.4667H262.939V94.4747H263.014C263.15 94.1459 263.347 93.8742 263.604 93.6597C263.861 93.4453 264.212 93.338 264.655 93.338C264.962 93.338 265.241 93.3952 265.491 93.5096C265.749 93.624 265.967 93.7991 266.145 94.0351C266.331 94.271 266.474 94.5712 266.574 94.9358C266.682 95.3004 266.735 95.7329 266.735 96.2334C266.735 96.7338 266.682 97.1663 266.574 97.5309C266.474 97.8955 266.331 98.1957 266.145 98.4317C265.967 98.6676 265.749 98.8427 265.491 98.9571C265.241 99.0715 264.962 99.1287 264.655 99.1287C264.212 99.1287 263.861 99.025 263.604 98.8177C263.347 98.6032 263.15 98.328 263.014 97.992H262.939V101.145H261.352V93.4667ZM263.969 97.8955C264.326 97.8955 264.601 97.7883 264.794 97.5738C264.987 97.3522 265.084 97.0483 265.084 96.6623V95.8044C265.084 95.4184 264.987 95.1181 264.794 94.9037C264.601 94.682 264.326 94.5712 263.969 94.5712C263.69 94.5712 263.447 94.6391 263.239 94.775C263.039 94.9108 262.939 95.1253 262.939 95.4184V97.0483C262.939 97.3414 263.039 97.5559 263.239 97.6917C263.447 97.8276 263.69 97.8955 263.969 97.8955ZM267.878 97.7668H269.573V92.2979H267.878V91.0647H271.16V97.7668H272.854V99H267.878V97.7668ZM278.801 99C278.473 99 278.208 98.9178 278.008 98.7534C277.808 98.5818 277.69 98.3387 277.654 98.0242H277.6C277.5 98.3888 277.3 98.664 277 98.8499C276.707 99.0357 276.346 99.1287 275.917 99.1287C275.381 99.1287 274.948 98.9857 274.619 98.6997C274.298 98.4066 274.137 97.9991 274.137 97.4773C274.137 96.8982 274.348 96.4693 274.769 96.1905C275.191 95.9117 275.81 95.7723 276.625 95.7723H277.515V95.4934C277.515 95.1646 277.436 94.918 277.279 94.7535C277.129 94.582 276.871 94.4962 276.507 94.4962C276.171 94.4962 275.899 94.5605 275.692 94.6892C275.484 94.8179 275.306 94.9859 275.155 95.1932L274.287 94.4211C274.473 94.1066 274.762 93.8492 275.155 93.649C275.556 93.4417 276.067 93.338 276.689 93.338C277.447 93.338 278.036 93.5132 278.458 93.8635C278.887 94.2066 279.102 94.7285 279.102 95.4291V97.8526H279.713V99H278.801ZM276.517 98.0885C276.796 98.0885 277.032 98.0206 277.225 97.8848C277.418 97.7489 277.515 97.5523 277.515 97.295V96.6301H276.667C276.017 96.6301 275.692 96.8482 275.692 97.2843V97.4987C275.692 97.6917 275.767 97.8383 275.917 97.9384C276.067 98.0385 276.267 98.0885 276.517 98.0885ZM283.451 99.1287C283.015 99.1287 282.622 99.0643 282.272 98.9357C281.928 98.7998 281.635 98.6068 281.392 98.3566C281.156 98.1064 280.974 97.8026 280.845 97.4451C280.717 97.0877 280.652 96.6837 280.652 96.2334C280.652 95.783 280.717 95.3791 280.845 95.0216C280.974 94.6642 281.156 94.3603 281.392 94.1101C281.635 93.8599 281.928 93.6705 282.272 93.5418C282.622 93.406 283.012 93.338 283.44 93.338C284.048 93.338 284.534 93.4631 284.899 93.7134C285.271 93.9564 285.553 94.2817 285.746 94.6892L284.524 95.354C284.423 95.1396 284.291 94.9609 284.127 94.8179C283.969 94.6749 283.741 94.6034 283.44 94.6034C283.076 94.6034 282.793 94.7106 282.593 94.9251C282.4 95.1324 282.304 95.4184 282.304 95.783V96.6837C282.304 97.0483 282.4 97.3379 282.593 97.5523C282.793 97.7597 283.083 97.8633 283.462 97.8633C283.769 97.8633 284.009 97.7918 284.18 97.6489C284.359 97.5059 284.509 97.32 284.631 97.0912L285.832 97.7775C285.632 98.185 285.339 98.5139 284.952 98.7641C284.574 99.0071 284.073 99.1287 283.451 99.1287ZM289.806 99.1287C288.877 99.1287 288.172 98.8713 287.693 98.3566C287.214 97.8419 286.975 97.1413 286.975 96.2548C286.975 95.8044 287.036 95.4005 287.157 95.0431C287.286 94.6785 287.465 94.3711 287.693 94.1209C287.929 93.8635 288.212 93.6705 288.541 93.5418C288.877 93.406 289.252 93.338 289.667 93.338C290.081 93.338 290.453 93.406 290.782 93.5418C291.111 93.6705 291.389 93.8563 291.618 94.0994C291.847 94.3425 292.022 94.6391 292.144 94.9894C292.272 95.3326 292.337 95.7186 292.337 96.1476V96.6194H288.551V96.7159C288.551 97.0734 288.662 97.3629 288.884 97.5845C289.105 97.799 289.431 97.9062 289.86 97.9062C290.188 97.9062 290.471 97.8454 290.707 97.7239C290.943 97.5952 291.146 97.4272 291.318 97.2199L292.176 98.1529C291.961 98.4174 291.661 98.6461 291.275 98.8391C290.889 99.0322 290.399 99.1287 289.806 99.1287ZM289.677 94.4747C289.334 94.4747 289.059 94.582 288.852 94.7964C288.651 95.0037 288.551 95.2861 288.551 95.6436V95.7294H290.782V95.6436C290.782 95.279 290.682 94.993 290.482 94.7857C290.289 94.5784 290.02 94.4747 289.677 94.4747ZM300.06 97.7668H301.69V94.6999H299.953V93.4667H301.69V92.6625C301.69 92.1906 301.826 91.8082 302.097 91.5151C302.376 91.2148 302.805 91.0647 303.384 91.0647H305.261V92.2979H303.277V93.4667H305.261V94.6999H303.277V97.7668H305.014V99H300.06V97.7668ZM308.945 99.1287C308.516 99.1287 308.13 99.0643 307.787 98.9357C307.444 98.7998 307.151 98.6068 306.908 98.3566C306.672 98.1064 306.49 97.8026 306.361 97.4451C306.232 97.0877 306.168 96.6837 306.168 96.2334C306.168 95.783 306.232 95.3791 306.361 95.0216C306.49 94.6642 306.672 94.3603 306.908 94.1101C307.151 93.8599 307.444 93.6705 307.787 93.5418C308.13 93.406 308.516 93.338 308.945 93.338C309.374 93.338 309.76 93.406 310.104 93.5418C310.447 93.6705 310.736 93.8599 310.972 94.1101C311.215 94.3603 311.401 94.6642 311.53 95.0216C311.658 95.3791 311.723 95.783 311.723 96.2334C311.723 96.6837 311.658 97.0877 311.53 97.4451C311.401 97.8026 311.215 98.1064 310.972 98.3566C310.736 98.6068 310.447 98.7998 310.104 98.9357C309.76 99.0643 309.374 99.1287 308.945 99.1287ZM308.945 97.9491C309.303 97.9491 309.582 97.8383 309.782 97.6167C309.982 97.3951 310.082 97.0805 310.082 96.673V95.7937C310.082 95.3862 309.982 95.0717 309.782 94.85C309.582 94.6284 309.303 94.5176 308.945 94.5176C308.588 94.5176 308.309 94.6284 308.109 94.85C307.909 95.0717 307.809 95.3862 307.809 95.7937V96.673C307.809 97.0805 307.909 97.3951 308.109 97.6167C308.309 97.8383 308.588 97.9491 308.945 97.9491ZM312.952 97.7668H314.228V94.6999H312.952V93.4667H315.815V95.0323H315.89C315.94 94.8322 316.008 94.6391 316.094 94.4533C316.187 94.2603 316.301 94.0923 316.437 93.9493C316.58 93.7991 316.751 93.6812 316.952 93.5954C317.152 93.5096 317.388 93.4667 317.659 93.4667H318.185V94.9251H317.005C316.612 94.9251 316.315 95.0431 316.115 95.279C315.915 95.5077 315.815 95.7901 315.815 96.1261V97.7668H317.638V99H312.952V97.7668ZM330.24 99C329.911 99 329.647 98.9178 329.447 98.7534C329.247 98.5818 329.129 98.3387 329.093 98.0242H329.039C328.939 98.3888 328.739 98.664 328.439 98.8499C328.146 99.0357 327.785 99.1287 327.356 99.1287C326.819 99.1287 326.387 98.9857 326.058 98.6997C325.736 98.4066 325.576 97.9991 325.576 97.4773C325.576 96.8982 325.786 96.4693 326.208 96.1905C326.63 95.9117 327.248 95.7723 328.063 95.7723H328.953V95.4934C328.953 95.1646 328.875 94.918 328.718 94.7535C328.567 94.582 328.31 94.4962 327.945 94.4962C327.609 94.4962 327.338 94.5605 327.13 94.6892C326.923 94.8179 326.744 94.9859 326.594 95.1932L325.726 94.4211C325.912 94.1066 326.201 93.8492 326.594 93.649C326.995 93.4417 327.506 93.338 328.128 93.338C328.886 93.338 329.475 93.5132 329.897 93.8635C330.326 94.2066 330.54 94.7285 330.54 95.4291V97.8526H331.152V99H330.24ZM327.956 98.0885C328.235 98.0885 328.471 98.0206 328.664 97.8848C328.857 97.7489 328.953 97.5523 328.953 97.295V96.6301H328.106C327.456 96.6301 327.13 96.8482 327.13 97.2843V97.4987C327.13 97.6917 327.206 97.8383 327.356 97.9384C327.506 98.0385 327.706 98.0885 327.956 98.0885ZM332.177 97.7668H333.871V92.2979H332.177V91.0647H335.458V97.7668H337.153V99H332.177V97.7668ZM338.607 97.7668H340.301V92.2979H338.607V91.0647H341.888V97.7668H343.583V99H338.607V97.7668ZM350.812 93.4667H352.131L352.528 97.9491H352.635L353.29 93.4667H354.684L355.327 97.9491H355.434L355.842 93.4667H357.096L356.442 99H354.555L354.008 95.1825H353.901L353.354 99H351.467L350.812 93.4667ZM360.384 99.1287C359.955 99.1287 359.569 99.0643 359.226 98.9357C358.883 98.7998 358.59 98.6068 358.347 98.3566C358.111 98.1064 357.929 97.8026 357.8 97.4451C357.671 97.0877 357.607 96.6837 357.607 96.2334C357.607 95.783 357.671 95.3791 357.8 95.0216C357.929 94.6642 358.111 94.3603 358.347 94.1101C358.59 93.8599 358.883 93.6705 359.226 93.5418C359.569 93.406 359.955 93.338 360.384 93.338C360.813 93.338 361.199 93.406 361.542 93.5418C361.886 93.6705 362.175 93.8599 362.411 94.1101C362.654 94.3603 362.84 94.6642 362.969 95.0216C363.097 95.3791 363.162 95.783 363.162 96.2334C363.162 96.6837 363.097 97.0877 362.969 97.4451C362.84 97.8026 362.654 98.1064 362.411 98.3566C362.175 98.6068 361.886 98.7998 361.542 98.9357C361.199 99.0643 360.813 99.1287 360.384 99.1287ZM360.384 97.9491C360.742 97.9491 361.02 97.8383 361.221 97.6167C361.421 97.3951 361.521 97.0805 361.521 96.673V95.7937C361.521 95.3862 361.421 95.0717 361.221 94.85C361.02 94.6284 360.742 94.5176 360.384 94.5176C360.027 94.5176 359.748 94.6284 359.548 94.85C359.348 95.0717 359.248 95.3862 359.248 95.7937V96.673C359.248 97.0805 359.348 97.3951 359.548 97.6167C359.748 97.8383 360.027 97.9491 360.384 97.9491ZM364.391 97.7668H365.667V94.6999H364.391V93.4667H367.254V95.0323H367.329C367.379 94.8322 367.447 94.6391 367.533 94.4533C367.626 94.2603 367.74 94.0923 367.876 93.9493C368.019 93.7991 368.19 93.6812 368.39 93.5954C368.591 93.5096 368.827 93.4667 369.098 93.4667H369.624V94.9251H368.444C368.051 94.9251 367.754 95.0431 367.554 95.279C367.354 95.5077 367.254 95.7901 367.254 96.1261V97.7668H369.077V99H364.391V97.7668ZM370.724 91.0647H372.311V95.5685H372.386L373.126 94.6999L374.284 93.4667H376.107L373.962 95.6543L376.332 99H374.445L372.836 96.5551L372.311 97.0805V99H370.724V91.0647ZM379.609 99.1287C378.995 99.1287 378.458 99.0357 378.001 98.8499C377.551 98.664 377.211 98.4102 376.982 98.0885L377.872 97.2628C378.087 97.4987 378.337 97.6846 378.623 97.8204C378.916 97.9491 379.248 98.0134 379.62 98.0134C379.935 98.0134 380.181 97.967 380.36 97.874C380.539 97.774 380.628 97.6238 380.628 97.4237C380.628 97.2664 380.567 97.1591 380.446 97.102C380.324 97.0376 380.156 96.9876 379.942 96.9518L379.052 96.8124C378.802 96.7767 378.569 96.7231 378.355 96.6516C378.14 96.5729 377.954 96.4693 377.797 96.3406C377.64 96.2119 377.515 96.0546 377.422 95.8688C377.329 95.6829 377.282 95.4577 377.282 95.1932C377.282 94.6141 377.504 94.1602 377.947 93.8313C378.391 93.5025 379.013 93.338 379.813 93.338C380.357 93.338 380.818 93.4131 381.197 93.5632C381.583 93.7062 381.89 93.9135 382.119 94.1852L381.325 95.086C381.161 94.9072 380.95 94.7571 380.693 94.6356C380.435 94.514 380.124 94.4533 379.76 94.4533C379.145 94.4533 378.837 94.6391 378.837 95.0109C378.837 95.1753 378.898 95.2897 379.02 95.354C379.141 95.4112 379.309 95.4577 379.524 95.4934L380.403 95.6329C380.653 95.6686 380.886 95.7258 381.1 95.8044C381.314 95.8759 381.5 95.976 381.658 96.1047C381.822 96.2334 381.951 96.3906 382.044 96.5765C382.137 96.7624 382.183 96.9876 382.183 97.2521C382.183 97.8311 381.958 98.2887 381.507 98.6247C381.064 98.9607 380.432 99.1287 379.609 99.1287ZM238.217 113.129C237.788 113.129 237.402 113.064 237.059 112.936C236.716 112.8 236.423 112.607 236.18 112.357C235.944 112.106 235.761 111.803 235.633 111.445C235.504 111.088 235.44 110.684 235.44 110.233C235.44 109.783 235.504 109.379 235.633 109.022C235.761 108.664 235.944 108.36 236.18 108.11C236.423 107.86 236.716 107.67 237.059 107.542C237.402 107.406 237.788 107.338 238.217 107.338C238.646 107.338 239.032 107.406 239.375 107.542C239.718 107.67 240.008 107.86 240.244 108.11C240.487 108.36 240.673 108.664 240.801 109.022C240.93 109.379 240.994 109.783 240.994 110.233C240.994 110.684 240.93 111.088 240.801 111.445C240.673 111.803 240.487 112.106 240.244 112.357C240.008 112.607 239.718 112.8 239.375 112.936C239.032 113.064 238.646 113.129 238.217 113.129ZM238.217 111.949C238.574 111.949 238.853 111.838 239.053 111.617C239.254 111.395 239.354 111.081 239.354 110.673V109.794C239.354 109.386 239.254 109.072 239.053 108.85C238.853 108.628 238.574 108.518 238.217 108.518C237.86 108.518 237.581 108.628 237.381 108.85C237.18 109.072 237.08 109.386 237.08 109.794V110.673C237.08 111.081 237.18 111.395 237.381 111.617C237.581 111.838 237.86 111.949 238.217 111.949ZM242.191 111.767H243.821V108.7H242.084V107.467H243.821V106.662C243.821 106.191 243.957 105.808 244.229 105.515C244.507 105.215 244.936 105.065 245.515 105.065H247.392V106.298H245.408V107.467H247.392V108.7H245.408V111.767H247.145V113H242.191V111.767ZM255.115 105.515H257.742C258.479 105.515 259.04 105.694 259.426 106.051C259.819 106.409 260.016 106.895 260.016 107.51C260.016 107.939 259.909 108.282 259.694 108.539C259.487 108.789 259.187 108.972 258.793 109.086V109.15C259.258 109.265 259.616 109.465 259.866 109.751C260.123 110.037 260.252 110.434 260.252 110.941C260.252 111.57 260.052 112.071 259.651 112.442C259.258 112.814 258.704 113 257.989 113H255.115V105.515ZM257.496 111.874C257.882 111.874 258.164 111.81 258.343 111.681C258.522 111.552 258.611 111.316 258.611 110.973V110.662C258.611 110.319 258.522 110.083 258.343 109.955C258.164 109.826 257.882 109.762 257.496 109.762H256.681V111.874H257.496ZM257.292 108.689C257.671 108.689 257.946 108.628 258.118 108.507C258.289 108.378 258.375 108.149 258.375 107.821V107.499C258.375 107.17 258.289 106.945 258.118 106.823C257.946 106.702 257.671 106.641 257.292 106.641H256.681V108.689H257.292ZM261.545 105.515H264.172C264.909 105.515 265.47 105.694 265.856 106.051C266.249 106.409 266.446 106.895 266.446 107.51C266.446 107.939 266.338 108.282 266.124 108.539C265.917 108.789 265.616 108.972 265.223 109.086V109.15C265.688 109.265 266.045 109.465 266.296 109.751C266.553 110.037 266.682 110.434 266.682 110.941C266.682 111.57 266.481 112.071 266.081 112.442C265.688 112.814 265.134 113 264.419 113H261.545V105.515ZM263.926 111.874C264.312 111.874 264.594 111.81 264.773 111.681C264.952 111.552 265.041 111.316 265.041 110.973V110.662C265.041 110.319 264.952 110.083 264.773 109.955C264.594 109.826 264.312 109.762 263.926 109.762H263.111V111.874H263.926ZM263.722 108.689C264.101 108.689 264.376 108.628 264.548 108.507C264.719 108.378 264.805 108.149 264.805 107.821V107.499C264.805 107.17 264.719 106.945 264.548 106.823C264.376 106.702 264.101 106.641 263.722 106.641H263.111V108.689H263.722ZM267.728 113L267.267 105.515H268.651L268.865 109.997L268.929 111.413H269.026L269.669 107.145H271.117L271.76 111.413H271.857L271.921 110.04L272.136 105.515H273.465L273.004 113H270.967L270.42 108.871H270.313L269.766 113H267.728ZM283.162 113.129C282.547 113.129 282.011 113.036 281.553 112.85C281.103 112.664 280.763 112.41 280.534 112.089L281.424 111.263C281.639 111.499 281.889 111.685 282.175 111.82C282.468 111.949 282.801 112.013 283.172 112.013C283.487 112.013 283.734 111.967 283.912 111.874C284.091 111.774 284.18 111.624 284.18 111.424C284.18 111.266 284.12 111.159 283.998 111.102C283.877 111.038 283.709 110.988 283.494 110.952L282.604 110.812C282.354 110.777 282.121 110.723 281.907 110.652C281.693 110.573 281.507 110.469 281.349 110.341C281.192 110.212 281.067 110.055 280.974 109.869C280.881 109.683 280.835 109.458 280.835 109.193C280.835 108.614 281.056 108.16 281.5 107.831C281.943 107.502 282.565 107.338 283.365 107.338C283.909 107.338 284.37 107.413 284.749 107.563C285.135 107.706 285.442 107.914 285.671 108.185L284.877 109.086C284.713 108.907 284.502 108.757 284.245 108.636C283.987 108.514 283.676 108.453 283.312 108.453C282.697 108.453 282.39 108.639 282.39 109.011C282.39 109.175 282.45 109.29 282.572 109.354C282.693 109.411 282.861 109.458 283.076 109.493L283.955 109.633C284.205 109.669 284.438 109.726 284.652 109.804C284.867 109.876 285.053 109.976 285.21 110.105C285.374 110.233 285.503 110.391 285.596 110.577C285.689 110.762 285.735 110.988 285.735 111.252C285.735 111.831 285.51 112.289 285.06 112.625C284.616 112.961 283.984 113.129 283.162 113.129ZM290.085 113C289.513 113 289.088 112.85 288.809 112.55C288.53 112.249 288.39 111.867 288.39 111.402V108.7H286.889V107.467H287.865C288.101 107.467 288.269 107.42 288.369 107.327C288.469 107.234 288.519 107.063 288.519 106.813V105.515H289.978V107.467H292.133V108.7H289.978V111.767H292.133V113H290.085ZM297.019 111.992H296.954C296.833 112.307 296.64 112.575 296.375 112.796C296.118 113.018 295.768 113.129 295.324 113.129C295.06 113.129 294.817 113.086 294.595 113C294.374 112.907 294.184 112.771 294.027 112.593C293.87 112.414 293.744 112.196 293.651 111.938C293.566 111.681 293.523 111.384 293.523 111.048V107.467H295.11V110.834C295.11 111.549 295.421 111.906 296.043 111.906C296.164 111.906 296.282 111.892 296.397 111.863C296.518 111.828 296.622 111.778 296.708 111.713C296.801 111.642 296.876 111.556 296.933 111.456C296.99 111.356 297.019 111.238 297.019 111.102V107.467H298.606V113H297.019V111.992ZM303.513 111.992H303.438C303.295 112.328 303.095 112.603 302.837 112.818C302.587 113.025 302.24 113.129 301.797 113.129C301.49 113.129 301.207 113.071 300.95 112.957C300.7 112.843 300.482 112.668 300.296 112.432C300.117 112.196 299.974 111.895 299.867 111.531C299.767 111.166 299.717 110.734 299.717 110.233C299.717 109.733 299.767 109.3 299.867 108.936C299.974 108.571 300.117 108.271 300.296 108.035C300.482 107.799 300.7 107.624 300.95 107.51C301.207 107.395 301.49 107.338 301.797 107.338C302.019 107.338 302.215 107.367 302.387 107.424C302.558 107.481 302.709 107.56 302.837 107.66C302.973 107.76 303.087 107.881 303.18 108.024C303.28 108.16 303.366 108.31 303.438 108.475H303.513V105.065H305.1V113H303.513V111.992ZM302.483 111.895C302.762 111.895 303.002 111.828 303.202 111.692C303.409 111.556 303.513 111.341 303.513 111.048V109.418C303.513 109.125 303.409 108.911 303.202 108.775C303.002 108.639 302.762 108.571 302.483 108.571C302.126 108.571 301.851 108.682 301.658 108.904C301.465 109.118 301.368 109.418 301.368 109.804V110.662C301.368 111.048 301.465 111.352 301.658 111.574C301.851 111.788 302.126 111.895 302.483 111.895ZM309.096 113.129C308.166 113.129 307.462 112.871 306.983 112.357C306.504 111.842 306.265 111.141 306.265 110.255C306.265 109.804 306.325 109.401 306.447 109.043C306.576 108.678 306.754 108.371 306.983 108.121C307.219 107.863 307.501 107.67 307.83 107.542C308.166 107.406 308.541 107.338 308.956 107.338C309.371 107.338 309.743 107.406 310.071 107.542C310.4 107.67 310.679 107.856 310.908 108.099C311.137 108.342 311.312 108.639 311.433 108.989C311.562 109.333 311.626 109.719 311.626 110.148V110.619H307.841V110.716C307.841 111.073 307.952 111.363 308.173 111.585C308.395 111.799 308.72 111.906 309.149 111.906C309.478 111.906 309.76 111.845 309.996 111.724C310.232 111.595 310.436 111.427 310.608 111.22L311.465 112.153C311.251 112.417 310.951 112.646 310.565 112.839C310.179 113.032 309.689 113.129 309.096 113.129ZM308.967 108.475C308.624 108.475 308.348 108.582 308.141 108.796C307.941 109.004 307.841 109.286 307.841 109.644V109.729H310.071V109.644C310.071 109.279 309.971 108.993 309.771 108.786C309.578 108.578 309.31 108.475 308.967 108.475ZM312.855 113V107.467H314.442V108.475H314.507C314.571 108.317 314.65 108.171 314.743 108.035C314.836 107.899 314.946 107.781 315.075 107.681C315.211 107.574 315.365 107.492 315.536 107.435C315.715 107.37 315.915 107.338 316.137 107.338C316.401 107.338 316.644 107.385 316.866 107.477C317.087 107.563 317.277 107.695 317.434 107.874C317.591 108.053 317.713 108.271 317.799 108.528C317.892 108.786 317.938 109.082 317.938 109.418V113H316.351V109.633C316.351 108.918 316.04 108.561 315.418 108.561C315.297 108.561 315.175 108.578 315.054 108.614C314.939 108.643 314.836 108.693 314.743 108.764C314.65 108.829 314.575 108.911 314.517 109.011C314.467 109.111 314.442 109.229 314.442 109.365V113H312.855ZM322.234 113C321.662 113 321.237 112.85 320.958 112.55C320.679 112.249 320.54 111.867 320.54 111.402V108.7H319.038V107.467H320.014C320.25 107.467 320.418 107.42 320.518 107.327C320.618 107.234 320.668 107.063 320.668 106.813V105.515H322.127V107.467H324.282V108.7H322.127V111.767H324.282V113H322.234ZM328.171 113.129C327.556 113.129 327.02 113.036 326.562 112.85C326.112 112.664 325.772 112.41 325.543 112.089L326.433 111.263C326.648 111.499 326.898 111.685 327.184 111.82C327.477 111.949 327.81 112.013 328.181 112.013C328.496 112.013 328.743 111.967 328.921 111.874C329.1 111.774 329.189 111.624 329.189 111.424C329.189 111.266 329.129 111.159 329.007 111.102C328.886 111.038 328.718 110.988 328.503 110.952L327.613 110.812C327.363 110.777 327.13 110.723 326.916 110.652C326.702 110.573 326.516 110.469 326.358 110.341C326.201 110.212 326.076 110.055 325.983 109.869C325.89 109.683 325.844 109.458 325.844 109.193C325.844 108.614 326.065 108.16 326.508 107.831C326.952 107.502 327.574 107.338 328.374 107.338C328.918 107.338 329.379 107.413 329.758 107.563C330.144 107.706 330.451 107.914 330.68 108.185L329.886 109.086C329.722 108.907 329.511 108.757 329.254 108.636C328.996 108.514 328.685 108.453 328.321 108.453C327.706 108.453 327.399 108.639 327.399 109.011C327.399 109.175 327.459 109.29 327.581 109.354C327.702 109.411 327.87 109.458 328.085 109.493L328.964 109.633C329.214 109.669 329.447 109.726 329.661 109.804C329.876 109.876 330.062 109.976 330.219 110.105C330.383 110.233 330.512 110.391 330.605 110.577C330.698 110.762 330.744 110.988 330.744 111.252C330.744 111.831 330.519 112.289 330.069 112.625C329.625 112.961 328.993 113.129 328.171 113.129ZM334.665 113.129C334.264 113.129 333.975 113.043 333.796 112.871C333.625 112.693 333.539 112.482 333.539 112.239V111.863C333.539 111.62 333.625 111.413 333.796 111.241C333.975 111.063 334.264 110.973 334.665 110.973C335.065 110.973 335.351 111.063 335.523 111.241C335.701 111.413 335.791 111.62 335.791 111.863V112.239C335.791 112.482 335.701 112.693 335.523 112.871C335.351 113.043 335.065 113.129 334.665 113.129Z" fill="#B3D800"/>
<path d="M250.001 72.0113H243.003V83.5268H237V56H243.003V67.1606H250.001V56H256.004V83.5268H250.001V72.0113Z" fill="#B3D800"/>
<path d="M270.898 84C267.452 84 264.841 83.0535 263.065 81.1606C261.29 79.2676 260.402 76.6911 260.402 73.431C260.402 71.7746 260.627 70.2892 261.077 68.9746C261.555 67.6338 262.217 66.5033 263.065 65.5831C263.94 64.6366 264.987 63.9268 266.206 63.4535C267.452 62.954 268.843 62.7042 270.381 62.7042C271.918 62.7042 273.296 62.954 274.516 63.4535C275.735 63.9268 276.768 64.6103 277.617 65.5042C278.465 66.3981 279.114 67.4892 279.565 68.7775C280.042 70.0394 280.28 71.4592 280.28 73.0366V74.7718H266.246V75.1268C266.246 76.4413 266.657 77.5061 267.478 78.3211C268.3 79.1099 269.506 79.5042 271.096 79.5042C272.316 79.5042 273.363 79.2808 274.237 78.8338C275.112 78.3606 275.867 77.7427 276.503 76.9803L279.684 80.4113C278.889 81.384 277.776 82.2254 276.344 82.9352C274.913 83.6451 273.097 84 270.898 84ZM270.42 66.8845C269.148 66.8845 268.128 67.2789 267.359 68.0676C266.617 68.83 266.246 69.8685 266.246 71.1831V71.4986H274.516V71.1831C274.516 69.8423 274.144 68.7906 273.402 68.0282C272.687 67.2657 271.693 66.8845 270.42 66.8845Z" fill="#B3D800"/>
<path d="M285.195 78.9916H289.926V67.7127H285.195V63.1775H295.81V68.9352H296.088C296.274 68.1991 296.526 67.4892 296.844 66.8056C297.188 66.0958 297.612 65.4779 298.116 64.9521C298.646 64.4 299.282 63.9662 300.024 63.6507C300.766 63.3352 301.641 63.1775 302.648 63.1775H304.596V68.5408H300.223C298.765 68.5408 297.665 68.9746 296.923 69.8423C296.181 70.6836 295.81 71.7221 295.81 72.9577V78.9916H302.569V83.5268H285.195V78.9916Z" fill="#B3D800"/>
<path d="M318.019 84C316.429 84 314.997 83.7634 313.725 83.2901C312.453 82.7906 311.366 82.0808 310.465 81.1606C309.59 80.2404 308.914 79.123 308.437 77.8085C307.96 76.4939 307.722 75.0085 307.722 73.3521C307.722 71.6958 307.96 70.2103 308.437 68.8958C308.914 67.5812 309.59 66.4638 310.465 65.5437C311.366 64.6235 312.453 63.9268 313.725 63.4535C314.997 62.954 316.429 62.7042 318.019 62.7042C319.609 62.7042 321.04 62.954 322.313 63.4535C323.585 63.9268 324.658 64.6235 325.533 65.5437C326.434 66.4638 327.123 67.5812 327.6 68.8958C328.078 70.2103 328.316 71.6958 328.316 73.3521C328.316 75.0085 328.078 76.4939 327.6 77.8085C327.123 79.123 326.434 80.2404 325.533 81.1606C324.658 82.0808 323.585 82.7906 322.313 83.2901C321.04 83.7634 319.609 84 318.019 84ZM318.019 79.662C319.344 79.662 320.378 79.2545 321.12 78.4394C321.862 77.6244 322.233 76.4676 322.233 74.969V71.7352C322.233 70.2366 321.862 69.0798 321.12 68.2648C320.378 67.4498 319.344 67.0423 318.019 67.0423C316.694 67.0423 315.66 67.4498 314.918 68.2648C314.176 69.0798 313.805 70.2366 313.805 71.7352V74.969C313.805 76.4676 314.176 77.6244 314.918 78.4394C315.66 79.2545 316.694 79.662 318.019 79.662Z" fill="#B3D800"/>
<path d="M342.414 84C338.969 84 336.358 83.0535 334.582 81.1606C332.806 79.2676 331.918 76.6911 331.918 73.431C331.918 71.7746 332.144 70.2892 332.594 68.9746C333.071 67.6338 333.734 66.5033 334.582 65.5831C335.457 64.6366 336.504 63.9268 337.723 63.4535C338.969 62.954 340.36 62.7042 341.898 62.7042C343.435 62.7042 344.813 62.954 346.032 63.4535C347.252 63.9268 348.285 64.6103 349.133 65.5042C349.982 66.3981 350.631 67.4892 351.082 68.7775C351.559 70.0394 351.797 71.4592 351.797 73.0366V74.7718H337.763V75.1268C337.763 76.4413 338.174 77.5061 338.995 78.3211C339.817 79.1099 341.023 79.5042 342.613 79.5042C343.832 79.5042 344.879 79.2808 345.754 78.8338C346.629 78.3606 347.384 77.7427 348.02 76.9803L351.201 80.4113C350.406 81.384 349.292 82.2254 347.861 82.9352C346.43 83.6451 344.614 84 342.414 84ZM341.937 66.8845C340.665 66.8845 339.645 67.2789 338.876 68.0676C338.134 68.83 337.763 69.8685 337.763 71.1831V71.4986H346.032V71.1831C346.032 69.8423 345.661 68.7906 344.919 68.0282C344.203 67.2657 343.21 66.8845 341.937 66.8845Z" fill="#B3D800"/>
<path d="M365.458 84C363.179 84 361.191 83.6582 359.495 82.9746C357.825 82.2911 356.566 81.3577 355.718 80.1746L359.017 77.138C359.813 78.0056 360.74 78.6892 361.801 79.1887C362.887 79.662 364.12 79.8986 365.498 79.8986C366.664 79.8986 367.579 79.7277 368.241 79.3859C368.904 79.0178 369.235 78.4657 369.235 77.7296C369.235 77.1512 369.01 76.7568 368.559 76.5465C368.109 76.3099 367.486 76.1258 366.691 75.9944L363.391 75.4817C362.463 75.3502 361.602 75.1531 360.807 74.8901C360.011 74.6009 359.322 74.2197 358.739 73.7465C358.156 73.2732 357.692 72.6948 357.348 72.0113C357.003 71.3277 356.831 70.4995 356.831 69.5268C356.831 67.3972 357.652 65.7277 359.296 64.5183C360.939 63.3089 363.245 62.7042 366.214 62.7042C368.228 62.7042 369.938 62.9803 371.342 63.5324C372.774 64.0582 373.913 64.8207 374.761 65.8197L371.819 69.1324C371.21 68.4751 370.428 67.923 369.474 67.4761C368.52 67.0291 367.367 66.8056 366.015 66.8056C363.735 66.8056 362.596 67.4892 362.596 68.8563C362.596 69.461 362.821 69.8817 363.272 70.1183C363.722 70.3286 364.345 70.4995 365.14 70.631L368.4 71.1437C369.328 71.2751 370.189 71.4854 370.984 71.7746C371.78 72.0376 372.469 72.4056 373.052 72.8789C373.661 73.3521 374.139 73.9305 374.483 74.6141C374.828 75.2977 375 76.1258 375 77.0986C375 79.2282 374.165 80.9108 372.495 82.1465C370.852 83.3822 368.506 84 365.458 84Z" fill="#B3D800"/>
</svg>
